<?xml version="1.0" encoding="UTF-8" standalone="no"?>
<svg
   xmlns:dc="http://purl.org/dc/elements/1.1/"
   xmlns:cc="http://creativecommons.org/ns#"
   xmlns:rdf="http://www.w3.org/1999/02/22-rdf-syntax-ns#"
   xmlns:svg="http://www.w3.org/2000/svg"
   xmlns="http://www.w3.org/2000/svg"
   xmlns:sodipodi="http://sodipodi.sourceforge.net/DTD/sodipodi-0.dtd"
   xmlns:inkscape="http://www.inkscape.org/namespaces/inkscape"
   width="1650"
   height="870"
   viewBox="0 0 436.5625 230.1875"
   version="1.1"
   id="svg8"
   inkscape:version="1.0.1 (3bc2e813f5, 2020-09-07)"
   sodipodi:docname="Y→TSI.svg">
  <defs
     id="defs2">
    <clipPath
       id="clipEmfPath2"
       clipPathUnits="userSpaceOnUse">
      <path
         id="path2657"
         d="M 5.007874,34.053543 H 1591.5024 V 910.4315 H 5.007874 Z" />
    </clipPath>
    <clipPath
       id="clipEmfPath7"
       clipPathUnits="userSpaceOnUse">
      <path
         id="path2672"
         d="M 19.029921,212.33386 H 399.62835 V 427.67244 H 19.029921 Z" />
    </clipPath>
    <clipPath
       id="clip0-7">
      <rect
         id="rect3548"
         height="289"
         width="411"
         y="2116"
         x="654" />
    </clipPath>
    <clipPath
       id="clip0-16">
      <rect
         id="rect3612"
         height="289"
         width="412"
         y="1991"
         x="1161" />
    </clipPath>
    <clipPath
       id="clip0-3">
      <rect
         id="rect3664"
         height="289"
         width="411"
         y="2341"
         x="1234" />
    </clipPath>
    <clipPath
       id="clipEmfPath10"
       clipPathUnits="userSpaceOnUse">
      <path
         id="path2681"
         d="m 1100.7307,312.49134 h 380.5984 v 215.33858 h -380.5984 z" />
    </clipPath>
  </defs>
  <sodipodi:namedview
     showguides="false"
     id="base"
     pagecolor="#ffffff"
     bordercolor="#666666"
     borderopacity="1.0"
     inkscape:pageopacity="0.0"
     inkscape:pageshadow="2"
     inkscape:zoom="0.80489982"
     inkscape:cx="991.95731"
     inkscape:cy="447.77705"
     inkscape:document-units="px"
     inkscape:current-layer="g3207"
     inkscape:document-rotation="0"
     showgrid="false"
     units="px"
     inkscape:window-width="1920"
     inkscape:window-height="974"
     inkscape:window-x="-8"
     inkscape:window-y="35"
     inkscape:window-maximized="1" />
  <metadata
     id="metadata5">
    <rdf:RDF>
      <cc:Work
         rdf:about="">
        <dc:format>image/svg+xml</dc:format>
        <dc:type
           rdf:resource="http://purl.org/dc/dcmitype/StillImage" />
        <dc:title></dc:title>
      </cc:Work>
    </rdf:RDF>
  </metadata>
  <g
     inkscape:label="レイヤー 1"
     inkscape:groupmode="layer"
     id="layer1">
    <g
       id="g3207"
       transform="translate(-50.217149,-53.018782)">
      <text
         id="text2698"
         y="159.9326"
         x="341.12897"
         style="font-style:normal;font-variant:normal;font-weight:normal;font-stretch:normal;font-size:11.2889px;line-height:1;font-family:sans-serif;-inkscape-font-specification:'sans-serif, Normal';font-variant-ligatures:normal;font-variant-caps:normal;font-variant-numeric:normal;font-variant-east-asian:normal;text-align:center;letter-spacing:0px;word-spacing:0px;text-anchor:middle;fill:#000000;fill-opacity:1;stroke:none;stroke-width:0.264583"
         xml:space="preserve"><tspan
           y="159.9326"
           x="341.12897"
           sodipodi:role="line"
           style="font-style:normal;font-variant:normal;font-weight:normal;font-stretch:normal;font-size:11.2889px;font-family:sans-serif;-inkscape-font-specification:'sans-serif, Normal';font-variant-ligatures:normal;font-variant-caps:normal;font-variant-numeric:normal;font-variant-east-asian:normal;text-align:center;text-anchor:middle;stroke-width:0.264583"
           id="tspan3225">抽出</tspan></text>
      <g
         id="g3409">
        <path
           id="path2726"
           d="M 4.5070866,152.74016 V 441.1937 H 413.14961 V 152.74016 Z"
           clip-path="url(#clipEmfPath2)"
           style="fill:#ffffff;fill-opacity:1;fill-rule:evenodd;stroke:none"
           transform="matrix(0.26458333,0,0,0.26458333,49.82384,45.483783)" />
        <path
           id="path2728"
           d="m 54.85884,158.37378 h 100.435 m -100.435,-6.36 h 100.435 m -100.435,-6.095 h 100.435 m -100.435,-6.36 h 100.435 m -100.435,-6.36 h 100.435 m -100.435,-6.36 h 100.435 m -100.435,-6.36 h 100.435 m -100.435,-6.095 h 100.435 m -100.435,-6.36 h 100.435 m -100.435,-6.36 h 100.435"
           style="fill:none;stroke:#d9d9d9;stroke-width:0.265px;stroke-linecap:butt;stroke-linejoin:round;stroke-miterlimit:4;stroke-dasharray:none;stroke-opacity:1" />
        <path
           id="path2730"
           d="m 54.85884,101.66378 v 56.71 m 5.565,-56.71 v 56.71 m 5.565,-56.71 v 56.71 m 5.83,-56.71 v 56.71 m 5.565,-56.71 v 56.71 m 5.565,-56.71 v 56.71 m 5.565,-56.71 v 56.71 m 5.564999,-56.71 v 56.71 m 5.565,-56.71 v 56.71 m 5.565001,-56.71 v 56.71 m 5.565,-56.71 v 56.71 m 5.565,-56.71 v 56.71 m 5.565,-56.71 v 56.71 m 5.565,-56.71 v 56.71 m 5.565,-56.71 v 56.71 m 5.565,-56.71 v 56.71 m 5.565,-56.71 v 56.71 m 5.565,-56.71 v 56.71 m 5.565,-56.71 v 56.71"
           style="fill:none;stroke:#d9d9d9;stroke-width:0.265px;stroke-linecap:butt;stroke-linejoin:round;stroke-miterlimit:4;stroke-dasharray:none;stroke-opacity:1" />
        <path
           id="path2732"
           d="m 19.530709,408.51732 c 0.37559,-0.50078 1.502362,-1.06417 1.815354,-2.56653 0.563386,-2.56654 1.126772,-10.64173 1.690157,-12.89528 0.250394,-0.93897 1.564961,-0.50079 1.752756,-0.81378 0.625985,-0.62598 1.18937,-1.56496 1.752756,-3.06732 0.563386,-1.43976 1.18937,-5.75906 1.815355,-5.57126 0.563385,0.18779 1.126771,3.50551 1.690157,6.76063 0.625984,3.19252 1.18937,9.51496 1.815354,12.51968 0.563386,2.87953 1.251969,4.88268 1.815355,5.63386 0.438189,0.62599 1.18937,0 1.690157,-0.87638 0.625984,-1.00157 1.18937,-3.25511 1.815355,-5.19566 0.563385,-1.94056 1.126771,-3.94371 1.690157,-6.51024 0.625984,-2.56654 1.18937,-5.94685 1.815354,-8.95158 0.625985,-2.94212 1.251969,-7.13622 1.815355,-8.76377 0.312992,-1.00158 1.251968,-0.43819 1.56496,-1.31457 0.625985,-1.50236 1.251969,-6.57284 1.815355,-7.69961 0.438189,-0.87638 1.251968,0.81378 1.752756,0.93898 0.563385,0.1252 1.18937,-0.62599 1.752755,-0.1878 0.500788,0.313 1.251969,1.12677 1.752756,2.62914 0.563386,1.69015 1.18937,3.8811 1.815355,7.8874 0.563386,4.19409 1.18937,15.33661 1.752756,17.08937 0.625984,1.75275 1.126771,-5.38347 1.752756,-6.51024 0.312992,-0.68858 1.439763,0.31299 1.752755,-0.50079 0.625985,-1.50236 1.189371,-6.07204 1.752756,-8.45078 0.563386,-2.37874 1.18937,-3.19252 1.815355,-5.88425 0.563385,-2.69174 1.18937,-8.57599 1.752756,-10.26615 0.250393,-0.75118 1.377165,0.81378 1.627559,0.1252 0.563385,-1.56496 1.18937,-7.8874 1.815354,-9.32716 0.312992,-0.87638 1.377165,0.62598 1.690157,0.75118 0.500788,0.12519 1.314567,-0.62599 1.815355,0.12519 0.438189,0.68859 1.314567,2.62914 1.752756,5.38347 0.563386,3.9437 1.18937,14.46023 1.752756,18.27874 0.37559,2.44134 1.439763,4.0689 1.815354,4.63228 0.438189,0.68858 1.251968,1.56496 1.690157,0.75118 0.625985,-1.06417 1.251969,-4.25669 1.815355,-6.94842 0.563386,-2.69174 1.126771,-6.69803 1.752756,-9.20197 0.563385,-2.50394 1.18937,-6.25984 1.752756,-5.75906 0.625984,0.56339 1.251968,9.45237 1.815354,8.88898 0.563386,-0.56339 1.064173,-8.63858 1.627559,-12.33189 0.563386,-3.75591 1.18937,-8.95157 1.752756,-10.07835 0.625984,-1.12677 1.18937,2.69174 1.752756,3.25512 0.37559,0.37559 1.377165,-0.62598 1.815354,0.1878 0.563386,1.18937 1.126772,5.50866 1.690158,7.13622 0.37559,0.87638 1.439763,0.87638 1.815354,2.31614 0.563386,2.56653 1.18937,10.20354 1.752756,12.89527 0.438189,1.81536 1.377165,3.81851 1.752756,3.25512 0.563386,-0.81378 1.18937,-6.44763 1.81535,-8.38819 0.50079,-1.75275 1.18937,-1.50236 1.69016,-3.19252 0.62599,-1.87795 1.18937,-6.07204 1.81536,-8.13779 0.56338,-2.06575 1.18937,-3.69331 1.81535,-4.25669 0.50079,-0.50079 1.12677,1.62756 1.62756,0.87637 0.56339,-0.87637 1.18937,-3.6933 1.81535,-6.19724 0.56339,-2.56654 1.12678,-8.32559 1.75276,-9.13937 0.56339,-0.87638 1.18937,2.75433 1.75276,4.0689 0.31299,0.62598 1.43976,1.75275 1.75275,3.8185 0.56339,4.1941 1.18937,17.52756 1.75276,21.53386 0.25039,1.43976 1.62756,2.06575 1.81535,2.31614 0.56339,0.68858 1.12677,2.31614 1.75276,1.75276 0.50078,-0.56339 1.18937,-2.50394 1.75275,-5.19567 0.62599,-2.81693 1.18937,-10.45394 1.75276,-12.0189 0.56339,-1.50236 1.18937,2.94213 1.75276,2.87953 0.62598,-0.1252 1.25196,-1.75276 1.81535,-3.44292 0.56339,-1.69015 1.06417,-5.94685 1.62756,-6.76063 0.43819,-0.68858 1.31457,2.62914 1.75275,1.50237 0.62599,-1.37717 1.18937,-9.01418 1.75276,-10.01575 0.62598,-1.06417 1.18937,2.37874 1.81535,3.8811 0.56339,1.43977 1.18937,2.56654 1.69016,5.32087 0.62599,2.94212 1.18937,8.63858 1.81536,12.26929 0.62598,3.56811 1.18937,8.38819 1.81535,9.26457 0.56339,0.87637 1.12677,-2.00315 1.69016,-4.0689 0.62598,-2.12835 1.18937,-7.07362 1.81535,-8.51339 0.31299,-0.81378 1.37717,0.31299 1.75276,-0.25039 0.56338,-1.06417 1.18937,-4.82008 1.75275,-5.94685 0.43819,-0.81378 1.37717,-0.0626 1.81536,-0.62599 0.56338,-0.68858 1.00157,-2.00315 1.62756,-3.7559 0.56338,-1.81536 1.18937,-5.19567 1.75275,-6.76063 0.56339,-1.43977 1.18937,-3.56811 1.75276,-2.50394 0.56339,1.06417 1.18937,7.26142 1.75276,9.13937 0.43818,1.31457 1.37716,0.87638 1.75275,2.19095 0.56339,1.87795 1.18937,7.44921 1.81536,9.13937 0.18779,0.68858 1.50236,-0.1252 1.75275,0.87637 0.62599,2.37874 1.18937,12.0815 1.75276,13.52126 0.50078,1.25197 1.25197,-2.31614 1.75275,-4.94527 0.62599,-2.94213 1.18937,-10.57914 1.75276,-12.95788 0.25039,-1.12677 1.50236,-0.93897 1.81535,-1.43976 0.56339,-1.25197 1.18937,-4.38189 1.75276,-5.75905 0.37559,-0.87638 1.25197,-1.12678 1.62756,-2.62914 0.56338,-2.25354 1.18937,-9.26456 1.81535,-11.01732 0.2504,-0.87638 1.43977,0.0626 1.69016,0.50079 0.62598,0.93897 1.25197,2.62913 1.81535,5.00787 0.56339,2.37874 1.12678,6.76063 1.75276,9.26457 0.50079,2.31614 1.18937,2.75433 1.75276,5.69645 0.62598,3.12993 1.18937,11.45552 1.81535,13.08308 0.56339,1.62755 1.12677,-2.56654 1.75276,-3.19252 0.56338,-0.62599 1.18937,0.0626 1.75275,-0.68859 0.56339,-0.75118 1.18937,-1.94055 1.75276,-4.13149 0.56338,-2.31615 1.18937,-7.26142 1.75275,-9.70276 0.62599,-2.44134 1.25197,-4.38189 1.81536,-5.07047 0.25039,-0.2504 1.43976,1.87795 1.69016,0.93897 0.56338,-2.37874 1.18937,-12.45708 1.75275,-14.96102 0.1878,-0.87638 1.56496,-0.87638 1.75276,-0.31299 0.56338,1.50236 1.18937,7.51181 1.81535,9.51496 0.2504,0.87638 1.43977,1.00157 1.69016,2.44134 0.62598,3.44291 1.18937,14.64803 1.81535,18.34134 0.313,2.00315 1.43977,3.44291 1.75276,3.63071 0.62598,0.37559 1.18937,-0.62599 1.75276,-1.37717 0.56338,-0.75118 1.18937,-2.62913 1.81535,-3.12992 0.37559,-0.31299 1.31457,1.06417 1.69016,0.25039 0.62598,-1.25197 1.18937,-5.32086 1.81535,-7.6996 0.56339,-2.31615 1.18937,-4.75748 1.81536,-6.38504 0.37559,-1.06418 1.18937,-1.50237 1.56496,-3.31772 0.56338,-2.62913 1.25197,-10.82953 1.81535,-12.39449 0.56339,-1.50236 1.18937,1.43977 1.75276,3.12992 0.56338,1.75276 1.18937,5.88426 1.75275,7.32402 0.37559,0.87638 1.37717,0.31299 1.75276,1.31457 0.56339,1.81535 1.18937,6.51023 1.75276,9.32716 0.62598,2.81693 1.25196,6.69803 1.81535,7.69961 0.50079,0.93897 1.18937,-0.56339 1.75276,-1.62756 0.56338,-1.18937 1.18937,-4.0063 1.75275,-5.50866 0.62599,-1.43977 1.18937,-1.69016 1.75276,-3.38032 0.56338,-1.69016 1.18937,-5.00787 1.81535,-6.69803 0.56339,-1.75276 1.18937,-2.56653 1.75276,-3.56811 0.56338,-1.00157 1.06417,-1.43976 1.62756,-2.56653 0.56338,-1.12678 1.18937,-2.12835 1.81535,-4.1941 0.56339,-2.06575 1.12677,-7.8248 1.69016,-8.20039 0.62598,-0.43819 1.18937,3.44291 1.81535,5.69645 0.56339,2.31615 1.12677,5.13307 1.69016,8.0126 0.62598,2.94213 1.25197,5.69646 1.81535,9.45236 0.62599,3.81851 1.18937,12.0189 1.81536,13.39607 0.56338,1.37716 1.12677,-2.75433 1.69016,-5.13307 0.62598,-2.37874 1.25196,-6.32244 1.81535,-9.07678 0.56339,-2.75433 1.12677,-6.07204 1.75276,-7.26141 0.37559,-0.81378 1.37716,0.62598 1.75275,-0.0626 0.62599,-1.12677 1.25197,-4.88268 1.81536,-6.44764 0.50078,-1.37716 1.06417,-1.18937 1.62756,-2.69173 0.56338,-1.56496 1.18937,-6.25984 1.75275,-6.82323 0.62599,-0.56339 1.12677,3.00472 1.75276,3.38032 0.56338,0.37559 1.18937,-1.75276 1.75275,-1.18937 0.50079,0.50078 1.31457,2.19094 1.75276,4.63228 0.62598,3.00472 1.18937,9.95315 1.81535,13.52126 0.56339,3.56811 1.18937,7.8874 1.75276,7.95 0.62598,0 1.18937,-5.82165 1.75276,-7.8248 0.56338,-2.00315 1.18937,-2.87953 1.81535,-4.1941 0.56339,-1.31457 1.12677,-2.50394 1.69016,-3.63071 0.62598,-1.18937 1.18937,-2.62913 1.81535,-3.25512 0.31299,-0.37559 1.43977,0.2504 1.75276,-0.62598 0.62598,-1.50236 1.12677,-6.13465 1.69016,-8.38819 0.56338,-2.31614 1.18937,-3.9437 1.81535,-5.25827 0.56339,-1.31456 1.12677,-2.50393 1.69016,-2.50393 0.62598,0 1.25197,2.06574 1.81535,2.50393 0.25039,0.1878 1.50236,-0.87637 1.75276,-0.0626 0.56338,2.00315 1.18937,8.263 1.75275,12.1441 0.62599,3.8811 1.18937,9.32716 1.81536,11.07992 0.25039,0.81378 1.43976,0.1878 1.75275,-0.68858 0.56339,-1.75276 1.18937,-7.69961 1.75276,-10.01575 0.56339,-2.12835 1.18937,-2.56654 1.75276,-4.0063 0.56338,-1.62756 1.18937,-4.19409 1.75275,-5.69646 0.56339,-1.43976 1.31457,-1.56496 1.81536,-3.44291 0.56338,-2.06575 1.06417,-6.44764 1.62755,-8.76378 0.56339,-2.25354 1.18937,-4.50709 1.75276,-4.94527 0.62598,-0.43819 1.18937,2.75433 1.75276,2.19094 0.56338,-0.56339 1.18937,-8.20039 1.81535,-5.69646 0.56339,2.50394 1.12677,17.65276 1.69016,20.65748 0.31299,1.50237 1.50236,-3.19252 1.81535,-2.31614 0.56339,1.81536 1.18937,12.1441 1.75276,13.33347 0.62598,1.25197 1.18937,-4.69489 1.75275,-6.13465 0.50079,-1.25197 1.31457,-1.18937 1.81536,-2.75433 0.56338,-1.87795 1.12677,-5.63386 1.69016,-8.38819 0.62598,-2.75433 1.18937,-7.44921 1.81535,-8.0752 0.62598,-0.68858 1.25197,5.32087 1.81535,4.0689 0.56339,-1.31456 1.00158,-9.01417 1.56497,-11.7059 0.50078,-2.44134 1.31456,-2.81693 1.81535,-4.63229 0.56339,-2.00315 1.12677,-7.38661 1.75276,-7.51181 0.56338,-0.12519 1.18937,4.88268 1.75275,6.69803 0.62599,1.81536 1.18937,2.25355 1.75276,4.1941 0.56338,1.94055 1.18937,4.25669 1.81535,7.26142 0.56339,3.06732 1.18937,8.51338 1.75276,10.89212 0.50078,1.94055 1.25197,4.1941 1.75275,3.50551 0.56339,-0.81378 1.18937,-6.19724 1.75276,-8.70118 0.62598,-2.50393 1.18937,-3.50551 1.75276,-6.19724 0.56338,-2.69173 1.18937,-6.88583 1.81535,-9.95315 0.56339,-3.00473 1.18937,-7.44921 1.75276,-8.32559 0.56338,-0.81378 1.06417,4.82008 1.62755,3.31771 0.56339,-1.56496 1.18937,-10.70433 1.81536,-12.39448 0.43819,-1.31457 1.25197,1.69015 1.69016,2.31614 0.62598,0.75118 1.25196,1.75275 1.81535,2.19094 0.1878,0.1252 1.50236,-0.50078 1.75276,0.313 0.56338,2.50393 1.18937,13.08307 1.75275,14.64803 0.62599,1.62756 1.18937,-5.75906 1.81536,-5.07048 0.56338,0.75119 1.12677,9.32717 1.69015,9.38977 0.62599,0.0626 1.25197,-6.88583 1.81536,-8.88898 0.50079,-1.62756 1.25197,-1.94055 1.75275,-2.94212 0.56339,-1.25197 1.18937,-2.56654 1.75276,-4.38189 0.62598,-1.81536 1.25197,-4.56969 1.81535,-6.51024 0.50079,-1.62756 1.18937,-2.37874 1.69016,-5.00787 0.56339,-2.94213 1.18937,-10.01575 1.75276,-12.89528 0.50079,-2.25354 1.31457,-3.9437 1.75275,-4.25669 0.313,-0.1878 1.50237,0.68858 1.75276,2.00315 0.62598,2.56653 1.18937,11.45551 1.75276,13.27086 0.37559,1.06418 1.43976,-3.50551 1.81535,-2.19094 0.56339,2.37874 1.18937,13.64645 1.75276,16.21299 0.25039,0.93898 1.50236,-0.31299 1.75275,-0.93898 0.56339,-1.56496 1.18937,-6.25984 1.81536,-8.63858 0.56338,-2.37874 1.12677,-3.31772 1.69015,-5.50866 0.62599,-2.25354 1.18937,-5.50866 1.81536,-7.8874 0.56338,-2.31614 1.18937,-5.00788 1.75275,-6.32244 0.313,-0.68859 1.37717,-0.50079 1.62756,-1.62756 0.56339,-2.19095 1.18937,-8.51339 1.81536,-11.39292 0.56338,-2.87952 1.12677,-6.19724 1.75275,-5.88425 0.56339,0.2504 1.18937,5.69646 1.75276,7.44922 0.43819,1.25196 1.31457,1.50236 1.75276,3.25511 0.56338,2.56654 1.18937,8.76378 1.75275,11.9563 0.62599,3.25512 1.25197,6.57284 1.81536,7.44922 0.43818,0.62598 1.25196,-1.06418 1.75275,-2.50394 0.56339,-1.81536 1.18937,-5.69646 1.75276,-8.38819 0.62598,-2.69173 1.18937,-5.44606 1.75275,-7.76221 0.56339,-2.25354 1.50237,-5.00787 1.75276,-5.94685"
           clip-path="url(#clipEmfPath7)"
           style="fill:none;stroke:#5b9bd5;stroke-width:2.00315px;stroke-linecap:round;stroke-linejoin:round;stroke-miterlimit:4;stroke-dasharray:none;stroke-opacity:1"
           transform="matrix(0.26458333,0,0,0.26458333,49.82384,45.483783)" />
        <g
           id="g2736"
           transform="matrix(0.26458333,0,0,0.26458333,49.82384,45.483783)">
          <rect
             id="rect2734"
             transform="translate(157.54755,188.54627)"
             y="-18.750824"
             x="0"
             height="23.309692"
             width="108.59357"
             style="clip-rule:nonzero;display:inline;overflow:visible;visibility:visible;color-interpolation:sRGB;color-interpolation-filters:linearRGB;fill:#ffffff;stroke:none;stroke-dasharray:none;marker:none;enable-background:accumulate" />
        </g>
        <text
           id="text2742"
           y="95.36998"
           x="91.508293"
           style="font-style:normal;font-variant:normal;font-weight:400;font-size:7.16029px;line-height:125%;font-family:Calibri;text-align:start;letter-spacing:0px;word-spacing:0px;text-anchor:start;fill:#000000;fill-opacity:1;stroke:none;stroke-width:0.264583"
           xml:space="preserve"><tspan
             id="tspan2740"
             y="95.36998"
             x="91.508293"
             sodipodi:role="line"
             style="stroke-width:0.264583"><tspan
               id="tspan2738"
               style="font-style:normal;font-variant:normal;font-weight:400;font-size:7.16029px;font-family:Calibri;fill:#595959;stroke-width:0.264583"
               dy="0"
               dx="0">Y (=T+S+I)</tspan></tspan></text>
        <path
           id="path2744"
           d="M 5.007874,153.24094 H 413.65039 V 441.69449 H 5.007874 Z"
           clip-path="url(#clipEmfPath2)"
           style="fill:none;stroke:#000000;stroke-width:1.00157px;stroke-linecap:butt;stroke-linejoin:round;stroke-miterlimit:4;stroke-dasharray:none;stroke-opacity:1"
           transform="matrix(0.26458333,0,0,0.26458333,49.82384,45.483783)" />
      </g>
      <path
         style="fill:#ffffff;fill-opacity:1;fill-rule:evenodd;stroke:none;stroke-width:0.264583"
         d="m 178.21634,153.46879 c 0,-3.36219 2.68313,-6.095 5.9625,-6.095 3.29594,0 5.9625,2.73281 5.9625,6.095 0,3.37875 -2.66656,6.095 -5.9625,6.095 -3.27937,0 -5.9625,-2.71625 -5.9625,-6.095 z"
         id="path2894" />
      <path
         style="fill:none;stroke:#000000;stroke-width:0.53px;stroke-linecap:butt;stroke-linejoin:miter;stroke-miterlimit:8;stroke-dasharray:none;stroke-opacity:1"
         d="m 178.21634,153.46879 c 0,-3.36219 2.68313,-6.095 5.9625,-6.095 3.29594,0 5.9625,2.73281 5.9625,6.095 0,3.37875 -2.66656,6.095 -5.9625,6.095 -3.27937,0 -5.9625,-2.71625 -5.9625,-6.095"
         id="path2896" />
      <g
         transform="matrix(0.26458333,0,0,0.26458333,49.82384,47.071284)"
         id="g2900">
        <rect
           style="clip-rule:nonzero;display:inline;overflow:visible;visibility:visible;color-interpolation:sRGB;color-interpolation-filters:linearRGB;fill:#ffffff;stroke:none;stroke-dasharray:none;marker:none;enable-background:accumulate"
           width="18.458862"
           height="2.5697629"
           x="0"
           y="-11.690613"
           transform="translate(499.13845,415.62472)"
           id="rect2898" />
      </g>
      <text
         xml:space="preserve"
         style="font-style:normal;font-variant:normal;font-weight:400;font-size:9.80612px;line-height:125%;font-family:Calibri;text-align:start;letter-spacing:0px;word-spacing:0px;text-anchor:start;fill:#000000;fill-opacity:1;stroke:none;stroke-width:0.264583"
         x="181.88756"
         y="156.50948"
         id="text2906"><tspan
           style="stroke-width:0.264583"
           sodipodi:role="line"
           x="181.88756"
           y="156.50948"
           id="tspan2904"><tspan
             dx="0"
             dy="0"
             style="font-style:normal;font-variant:normal;font-weight:400;font-size:9.80612px;font-family:Calibri;fill:#000000;stroke-width:0.264583"
             id="tspan2902">−</tspan></tspan></text>
      <path
         style="fill:#000000;fill-opacity:1;fill-rule:nonzero;stroke:#000000;stroke-width:0.0165625px;stroke-linecap:butt;stroke-linejoin:round;stroke-miterlimit:4;stroke-dasharray:none;stroke-opacity:1"
         d="m 161.37228,130.56286 18.05312,17.32437 -0.74531,0.76187 -18.05313,-17.30781 z m 16.57906,12.33906 1.88813,6.12812 -6.19438,-1.63969 c -0.28156,-0.0662 -0.46375,-0.36437 -0.38094,-0.64593 0.0662,-0.28156 0.36438,-0.44719 0.64594,-0.38094 l 5.28344,1.39125 -0.64594,0.67906 -1.60656,-5.21718 c -0.0828,-0.28157 0.0663,-0.57969 0.34781,-0.6625 0.28156,-0.0828 0.57969,0.0662 0.6625,0.34781 z"
         id="path2908" />
      <path
         style="fill:#000000;fill-opacity:1;fill-rule:nonzero;stroke:#000000;stroke-width:0.0165625px;stroke-linecap:butt;stroke-linejoin:round;stroke-miterlimit:4;stroke-dasharray:none;stroke-opacity:1"
         d="m 197.95884,132.00379 -9.30812,15.88344 0.91093,0.53 9.30813,-15.86687 z m -9.25844,10.68282 -0.14906,6.40968 5.53187,-3.26281 c 0.24844,-0.14906 0.33125,-0.48031 0.18219,-0.72875 -0.14906,-0.24844 -0.48031,-0.33125 -0.72875,-0.18219 l -4.68719,2.76594 0.79501,0.48031 0.11593,-5.46562 c 0.0166,-0.28157 -0.21531,-0.53 -0.51344,-0.54656 -0.29812,0 -0.53,0.23187 -0.54656,0.53 z"
         id="path2910" />
      <path
         style="fill:#000000;fill-opacity:1;fill-rule:nonzero;stroke:#000000;stroke-width:0.0165625px;stroke-linecap:butt;stroke-linejoin:round;stroke-miterlimit:4;stroke-dasharray:none;stroke-opacity:1"
         d="m 183.78134,159.56379 v 14.7075 h 28.10563 v -1.06 h -27.57563 l 0.53,0.53 v -14.1775 z m 23.60063,17.29125 5.59812,-3.11375 -5.59812,-3.11375 c -0.26501,-0.14906 -0.57969,-0.0497 -0.72876,0.19875 -0.13249,0.265 -0.0497,0.57969 0.21532,0.72875 l 4.77,2.65 v -0.9275 l -4.77,2.65 c -0.265,0.1325 -0.34781,0.46375 -0.21532,0.71219 0.14907,0.265 0.46375,0.34781 0.72876,0.21531 z"
         id="path2912"
         sodipodi:nodetypes="cccccccccccccccccc" />
      <path
         style="fill:#ffffff;fill-opacity:1;fill-rule:evenodd;stroke:none;stroke-width:0.264583"
         d="m 341.70463,211.24128 c 0,-3.36219 2.68312,-6.095 5.96249,-6.095 3.29594,0 5.96249,2.73281 5.96249,6.095 0,3.37875 -2.66655,6.095 -5.96249,6.095 -3.27937,0 -5.96249,-2.71625 -5.96249,-6.095 z"
         id="path2914" />
      <path
         style="fill:none;stroke:#000000;stroke-width:0.53px;stroke-linecap:butt;stroke-linejoin:miter;stroke-miterlimit:8;stroke-dasharray:none;stroke-opacity:1"
         d="m 341.70463,211.24128 c 0,-3.36219 2.68312,-6.095 5.96249,-6.095 3.29594,0 5.96249,2.73281 5.96249,6.095 0,3.37875 -2.66655,6.095 -5.96249,6.095 -3.27937,0 -5.96249,-2.71625 -5.96249,-6.095"
         id="path2916" />
      <g
         transform="matrix(0.26458333,0,0,0.26458333,60.407115,45.483783)"
         id="g2920">
        <rect
           style="clip-rule:nonzero;display:inline;overflow:visible;visibility:visible;color-interpolation:sRGB;color-interpolation-filters:linearRGB;fill:#ffffff;stroke:none;stroke-dasharray:none;marker:none;enable-background:accumulate"
           width="18.458862"
           height="2.5697629"
           x="0"
           y="-11.690613"
           transform="translate(1076.7526,640.50764)"
           id="rect2918" />
      </g>
      <text
         xml:space="preserve"
         style="font-style:normal;font-variant:normal;font-weight:400;font-size:9.80612px;line-height:125%;font-family:Calibri;text-align:start;letter-spacing:0px;word-spacing:0px;text-anchor:start;fill:#000000;fill-opacity:1;stroke:none;stroke-width:0.264583"
         x="345.29791"
         y="214.42227"
         id="text2926"><tspan
           style="stroke-width:0.264583"
           sodipodi:role="line"
           x="345.29791"
           y="214.42227"
           id="tspan2924"><tspan
             dx="0"
             dy="0"
             style="font-style:normal;font-variant:normal;font-weight:400;font-size:9.80612px;font-family:Calibri;fill:#000000;stroke-width:0.264583"
             id="tspan2922">−</tspan></tspan></text>
      <path
         style="fill:#000000;fill-opacity:1;fill-rule:nonzero;stroke:#000000;stroke-width:0.0165625px;stroke-linecap:butt;stroke-linejoin:round;stroke-miterlimit:4;stroke-dasharray:none;stroke-opacity:1"
         d="m 324.86056,188.60034 18.05311,17.32438 -0.7453,0.76187 -18.05312,-17.30781 z m 16.57907,12.33907 1.88812,6.12812 -6.19438,-1.63969 c -0.28157,-0.0662 -0.46376,-0.36437 -0.38094,-0.64594 0.0663,-0.28156 0.36438,-0.44718 0.64595,-0.38093 l 5.28344,1.39125 -0.64596,0.67906 -1.60655,-5.21719 c -0.0828,-0.28156 0.0663,-0.57969 0.3478,-0.6625 0.28157,-0.0828 0.5797,0.0662 0.66252,0.34782 z"
         id="path2928" />
      <path
         style="fill:#000000;fill-opacity:1;fill-rule:nonzero;stroke:#000000;stroke-width:0.0165625px;stroke-linecap:butt;stroke-linejoin:round;stroke-miterlimit:4;stroke-dasharray:none;stroke-opacity:1"
         d="m 361.18212,190.04128 -9.30812,15.88344 0.91093,0.53 9.30812,-15.86688 z m -9.25843,10.68281 -0.14907,6.40969 5.53188,-3.26281 c 0.24842,-0.14907 0.33123,-0.48031 0.1822,-0.72875 -0.14907,-0.24844 -0.48033,-0.33125 -0.72877,-0.18219 l -4.68718,2.76594 0.795,0.48031 0.11594,-5.46562 c 0.0166,-0.28157 -0.21532,-0.53 -0.51345,-0.54657 -0.29811,0 -0.52999,0.23188 -0.54655,0.53 z"
         id="path2930" />
      <path
         style="fill:#000000;fill-opacity:1;fill-rule:nonzero;stroke:#000000;stroke-width:0.0165625px;stroke-linecap:butt;stroke-linejoin:round;stroke-miterlimit:4;stroke-dasharray:none;stroke-opacity:1"
         d="m 347.00461,217.33628 v 14.7075 h 28.10563 v -1.06 h -27.57562 l 0.52999,0.53 v -14.1775 z m 23.60065,17.29125 5.5981,-3.11375 -5.5981,-3.11375 c -0.26501,-0.14906 -0.57971,-0.0497 -0.72877,0.19875 -0.13251,0.265 -0.0497,0.57969 0.21531,0.72875 l 4.77002,2.65 v -0.9275 l -4.77002,2.65 c -0.265,0.1325 -0.34782,0.46375 -0.21531,0.71219 0.14906,0.265 0.46376,0.34781 0.72877,0.21531 z"
         id="path2932"
         sodipodi:nodetypes="cccccccccccccccccc" />
      <g
         id="g3585"
         transform="matrix(0.26458333,0,0,0.26458333,41.202268,-414.33698)"
         clip-path="url(#clip0-7)">
        <rect
           id="rect3553"
           fill="#ffffff"
           height="288"
           width="410"
           y="2116"
           x="654" />
        <g
           id="g3557">
          <path
             id="path3555"
             fill="none"
             stroke-miterlimit="10"
             stroke-linejoin="round"
             stroke="#d9d9d9"
             d="m 668.5,2389.5 h 381 m -381,-27 h 381 m -381,-26 h 381 m -381,-27 h 381 m -381,-54 h 381 m -381,-27 h 381 m -381,-26 h 381 m -381,-27 h 381" />
        </g>
        <g
           id="g3561">
          <path
             id="path3559"
             fill="none"
             stroke-miterlimit="10"
             stroke-linejoin="round"
             stroke="#d9d9d9"
             d="m 668.5,2175.5 v 214 m 21,-214 v 214 m 21,-214 v 214 m 21,-214 v 214 m 22,-214 v 214 m 21,-214 v 214 m 21,-214 v 214 m 21,-214 v 214 m 21,-214 v 214 m 21,-214 v 214 m 22,-214 v 214 m 21,-214 v 214 m 21,-214 v 214 m 21,-214 v 214 m 21,-214 v 214 m 22,-214 v 214 m 21,-214 v 214 m 21,-214 v 214 m 21,-214 v 214" />
        </g>
        <g
           id="g3565">
          <path
             id="path3563"
             fill-rule="evenodd"
             fill="none"
             stroke-miterlimit="10"
             stroke-linejoin="round"
             stroke-width="1.33333"
             stroke="#000000"
             d="m 668.5,2282.5 h 381" />
        </g>
        <g
           id="g3569">
          <path
             id="path3567"
             fill="none"
             stroke-miterlimit="10"
             stroke-linejoin="round"
             stroke-linecap="round"
             stroke-width="2"
             stroke="#5b9bd5"
             d="m 668,2283.21 c 0.255,-0.11 1.554,0.16 1.801,-0.8 0.581,-2.24 1.104,-10.74 1.685,-12.66 0.304,-1.01 1.492,1.14 1.801,1.1 0.591,-0.09 1.152,-0.59 1.743,-1.6 0.59,-1 1.21,-5.27 1.801,-4.45 0.591,0.82 1.152,5.16 1.743,9.37 0.591,4.22 1.201,11.91 1.801,15.9 0.6,4 1.21,6.6 1.801,8.05 0.351,0.86 1.392,1.01 1.743,0.65 0.591,-0.6 1.21,-2.6 1.801,-4.27 0.591,-1.68 1.152,-3.4 1.743,-5.79 0.591,-2.39 1.201,-5.71 1.801,-8.55 0.6,-2.83 1.23,-7.01 1.801,-8.44 0.302,-0.76 1.325,0.49 1.627,-0.16 0.571,-1.24 1.21,-6.46 1.801,-7.27 0.591,-0.82 1.152,1.8 1.743,2.37 0.582,0.57 1.22,0.21 1.801,1.08 0.55,0.83 1.194,2.02 1.743,4.25 0.591,2.39 1.201,5.01 1.801,10.11 0.6,5.1 1.211,18.1 1.801,20.47 0.591,2.37 1.153,-5.31 1.743,-6.26 0.386,-0.62 1.415,1.42 1.801,0.56 0.591,-1.32 1.152,-6.11 1.743,-8.45 0.591,-2.33 1.201,-2.88 1.801,-5.57 0.601,-2.69 1.23,-8.96 1.801,-10.55 0.324,-0.91 1.303,1.82 1.627,1.01 0.571,-1.42 1.21,-8.22 1.801,-9.53 0.5,-1.1 1.243,1.3 1.743,1.69 0.425,0.33 1.376,0.11 1.801,1.07 0.442,0.99 1.301,3.36 1.743,6.89 0.591,4.72 1.201,16.85 1.801,21.42 0.408,3.1 1.4,5.14 1.801,6 0.498,1.06 1.246,2.35 1.743,1.58 0.591,-0.93 1.211,-4.33 1.801,-7.12 0.591,-2.79 1.153,-7.07 1.743,-9.64 0.591,-2.57 1.201,-6.59 1.801,-5.78 0.601,0.82 1.23,11.1 1.801,10.65 0.572,-0.45 1.056,-9.34 1.627,-13.35 0.571,-4.01 1.211,-9.62 1.801,-10.7 0.591,-1.08 1.153,3.37 1.743,4.2 0.348,0.48 1.454,-0.15 1.801,0.77 0.591,1.55 1.153,6.6 1.743,8.55 0.348,1.15 1.448,1.38 1.801,3.16 0.601,3.02 1.211,11.8 1.801,14.99 0.412,2.23 1.332,4.74 1.743,4.18 0.591,-0.8 1.211,-6.95 1.801,-8.98 0.51,-1.76 1.233,-1.5 1.743,-3.21 0.591,-1.99 1.201,-6.55 1.801,-8.73 0.601,-2.19 1.221,-3.87 1.802,-4.38 0.58,-0.51 1.103,2.2 1.684,1.32 0.581,-0.89 1.211,-3.88 1.801,-6.64 0.591,-2.76 1.153,-9.1 1.743,-9.93 0.591,-0.84 1.211,3.33 1.801,4.92 0.298,0.8 1.446,2.17 1.743,4.62 0.591,4.86 1.201,19.99 1.801,24.57 0.222,1.69 1.583,2.58 1.802,2.9 0.59,0.85 1.152,2.79 1.743,2.24 0.539,-0.51 1.261,-2.68 1.801,-5.55 0.59,-3.13 1.152,-11.63 1.743,-13.26 0.59,-1.64 1.2,3.47 1.801,3.44 0.6,-0.03 1.229,-1.79 1.801,-3.63 0.571,-1.85 1.055,-6.52 1.626,-7.44 0.465,-0.74 1.321,3.21 1.801,1.97 0.591,-1.53 1.153,-10.03 1.744,-11.12 0.59,-1.08 1.21,2.82 1.8,4.61 0.556,1.7 1.188,3.02 1.744,6.18 0.59,3.36 1.2,9.88 1.801,13.99 0.6,4.1 1.21,9.6 1.801,10.63 0.59,1.04 1.152,-2.12 1.743,-4.43 0.59,-2.31 1.21,-7.83 1.801,-9.42 0.303,-0.82 1.439,0.45 1.743,-0.12 0.59,-1.1 1.2,-5.33 1.801,-6.5 0.427,-0.84 1.394,0.01 1.801,-0.55 0.571,-0.78 1.055,-2.22 1.627,-4.15 0.571,-1.93 1.21,-5.75 1.801,-7.44 0.53,-1.51 1.212,-3.87 1.743,-2.7 0.59,1.3 1.21,8.33 1.801,10.5 0.404,1.49 1.338,1.07 1.743,2.55 0.59,2.17 1.2,8.53 1.801,10.46 0.225,0.73 1.579,0.08 1.801,1.12 0.59,2.75 1.152,13.75 1.743,15.41 0.5,1.41 1.3,-2.61 1.801,-5.43 0.59,-3.32 1.152,-11.84 1.743,-14.5 0.252,-1.14 1.544,-0.93 1.801,-1.49 0.6,-1.3 1.23,-4.79 1.801,-6.31 0.359,-0.95 1.268,-1.22 1.627,-2.8 0.571,-2.52 1.21,-10.37 1.801,-12.29 0.277,-0.91 1.465,0.23 1.743,0.74 0.59,1.09 1.21,3.03 1.801,5.75 0.59,2.73 1.152,7.73 1.743,10.6 0.556,2.7 1.235,3.23 1.801,6.6 0.6,3.59 1.21,13 1.801,14.91 0.572,1.85 1.17,-2.8 1.743,-3.46 0.542,-0.61 1.259,0.2 1.801,-0.58 0.545,-0.78 1.198,-2.14 1.743,-4.48 0.59,-2.54 1.2,-8.04 1.801,-10.74 0.6,-2.71 1.22,-4.79 1.801,-5.5 0.229,-0.28 1.455,2.24 1.685,1.23 0.581,-2.57 1.21,-13.86 1.801,-16.66 0.18,-0.85 1.562,-0.7 1.743,-0.14 0.59,1.8 1.21,8.67 1.801,11 0.252,0.99 1.491,1.25 1.743,2.95 0.59,3.97 1.2,16.67 1.801,20.87 0.333,2.34 1.473,4.08 1.801,4.37 0.591,0.51 1.152,-0.54 1.743,-1.3 0.591,-0.76 1.21,-2.79 1.801,-3.25 0.376,-0.28 1.367,1.37 1.743,0.54 0.591,-1.3 1.201,-5.81 1.801,-8.35 0.6,-2.54 1.23,-5.16 1.801,-6.89 0.376,-1.13 1.251,-1.59 1.627,-3.46 0.571,-2.86 1.21,-12.02 1.801,-13.66 0.575,-1.59 1.168,1.81 1.743,3.83 0.591,2.07 1.21,6.89 1.801,8.63 0.34,1.01 1.403,0.61 1.743,1.83 0.591,2.1 1.201,7.51 1.801,10.82 0.6,3.32 1.21,7.81 1.801,9.09 0.477,1.02 1.266,-0.47 1.743,-1.45 0.591,-1.21 1.21,-4.27 1.801,-5.81 0.591,-1.54 1.152,-1.68 1.743,-3.44 0.591,-1.76 1.201,-5.35 1.801,-7.12 0.601,-1.78 1.23,-2.54 1.801,-3.54 0.571,-1 1.056,-1.34 1.627,-2.47 0.571,-1.13 1.21,-2.14 1.801,-4.31 0.591,-2.18 1.152,-8.45 1.743,-8.75 0.591,-0.3 1.21,4.21 1.801,6.95 0.591,2.74 1.152,6.05 1.743,9.5 0.591,3.44 1.201,6.72 1.801,11.19 0.6,4.46 1.211,13.85 1.801,15.58 0.591,1.73 1.152,-2.73 1.743,-5.21 0.591,-2.48 1.211,-6.78 1.801,-9.66 0.591,-2.88 1.152,-6.45 1.743,-7.64 0.418,-0.83 1.376,1.25 1.801,0.53 0.601,-1.01 1.23,-5.09 1.801,-6.59 0.5,-1.32 1.128,-1.08 1.627,-2.46 0.571,-1.59 1.21,-6.63 1.801,-7.07 0.591,-0.44 1.152,3.8 1.743,4.44 0.534,0.57 1.267,-1.41 1.801,-0.63 0.489,0.73 1.254,2.84 1.743,5.86 0.591,3.64 1.201,11.71 1.801,15.98 0.601,4.27 1.211,9.37 1.801,9.63 0.591,0.27 1.152,-6.05 1.743,-8.05 0.591,-2 1.211,-2.74 1.801,-3.96 0.591,-1.22 1.153,-2.32 1.743,-3.36 0.591,-1.03 1.201,-2.41 1.801,-2.87 0.351,-0.27 1.462,0.94 1.801,0.11 0.581,-1.43 1.104,-6.39 1.685,-8.68 0.581,-2.29 1.211,-3.89 1.801,-5.06 0.591,-1.17 1.153,-2.25 1.743,-1.97 0.591,0.29 1.211,2.93 1.801,3.68 0.217,0.28 1.527,-0.11 1.743,0.83 0.591,2.57 1.201,9.91 1.801,14.57 0.601,4.66 1.211,11.13 1.801,13.39 0.221,0.85 1.522,0.81 1.743,0.18 0.591,-1.69 1.211,-8 1.801,-10.31 0.492,-1.93 1.252,-2.33 1.743,-3.58 0.591,-1.49 1.201,-4.02 1.801,-5.41 0.499,-1.14 1.327,-1.24 1.802,-2.87 0.571,-1.96 1.055,-6.65 1.626,-8.89 0.572,-2.23 1.211,-4.37 1.801,-4.54 0.591,-0.18 1.153,3.81 1.743,3.5 0.517,-0.27 1.285,-8.12 1.801,-5.35 0.591,3.18 1.153,20.59 1.743,24.4 0.182,1.17 1.617,-2.28 1.801,-1.53 0.601,2.44 1.211,14.48 1.801,16.21 0.591,1.73 1.153,-4.55 1.743,-5.85 0.433,-0.94 1.369,-0.68 1.802,-1.92 0.59,-1.7 1.152,-5.58 1.742,-8.28 0.591,-2.7 1.201,-7.56 1.802,-7.91 0.6,-0.35 1.229,6.86 1.801,5.82 0.571,-1.04 1.055,-9.39 1.626,-12.06 0.453,-2.11 1.333,-2.45 1.801,-3.93 0.591,-1.85 1.153,-7.48 1.743,-7.21 0.591,0.26 1.211,6.34 1.802,8.81 0.59,2.47 1.152,3.42 1.742,6.01 0.591,2.59 1.201,5.68 1.802,9.54 0.6,3.86 1.21,10.47 1.801,13.62 0.511,2.73 1.231,5.73 1.743,5.27 0.59,-0.53 1.21,-6.1 1.801,-8.45 0.59,-2.35 1.152,-3.06 1.743,-5.63 0.59,-2.57 1.2,-6.83 1.801,-9.79 0.6,-2.96 1.229,-7.46 1.801,-7.95 0.571,-0.49 1.055,6.24 1.626,4.99 0.572,-1.24 1.211,-11.04 1.802,-12.45 0.59,-1.41 1.152,2.67 1.742,4 0.591,1.32 1.211,2.98 1.802,3.95 0.223,0.37 1.519,0.61 1.742,1.86 0.591,3.31 1.201,15.7 1.802,18 0.573,2.2 1.237,-5.43 1.799,-4.18 0.59,1.32 1.15,11.46 1.74,12.06 0.6,0.61 1.22,-6.72 1.81,-8.43 0.41,-1.19 1.33,-1.23 1.74,-1.82 0.59,-0.85 1.2,-1.8 1.8,-3.31 0.6,-1.51 1.22,-4.1 1.8,-5.73 0.44,-1.26 1.24,-1.93 1.69,-4.1 0.58,-2.84 1.21,-10.24 1.8,-12.92 0.39,-1.78 1.35,-3.27 1.74,-3.19 0.37,0.08 1.43,1.8 1.8,3.93 0.59,3.42 1.15,13.92 1.74,16.55 0.18,0.79 1.62,-1.71 1.8,-0.75 0.61,3.2 1.22,16.5 1.81,19.92 0.15,0.91 1.58,0.95 1.74,0.62 0.59,-1.23 1.21,-5.93 1.8,-8.02 0.59,-2.1 1.15,-2.62 1.74,-4.56 0.59,-1.94 1.2,-5.01 1.8,-7.08 0.6,-2.08 1.23,-4.44 1.8,-5.37 0.24,-0.39 1.39,0.55 1.63,-0.24 0.57,-1.89 1.21,-8.41 1.8,-11.08 0.57,-2.54 1.18,-5.75 1.75,-4.9 0.59,0.88 1.21,7.61 1.8,10.22 0.48,2.13 1.26,2.62 1.74,5.43 0.59,3.46 1.2,11.05 1.8,15.3 0.6,4.24 1.21,8.63 1.8,10.16 0.36,0.93 1.38,-0.11 1.74,-0.99 0.6,-1.44 1.22,-5.21 1.81,-7.64 0.59,-2.42 1.15,-4.94 1.74,-6.91 0.59,-1.97 1.5,-4.08 1.8,-4.9" />
        </g>
        <g
           id="g3573">
          <text
             id="text3571"
             transform="translate(808.057,2151)"
             font-size="27px"
             font-weight="400"
             font-family="Calibri, Calibri_MSFontService, sans-serif"
             fill="#595959">Y</text>
        </g>
        <g
           id="g3577">
          <text
             id="text3575"
             transform="translate(821.05,2151)"
             font-size="27px"
             font-weight="400"
             font-family="Calibri, Calibri_MSFontService, sans-serif"
             fill="#595959">-</text>
        </g>
        <g
           id="g3581">
          <text
             id="text3579"
             transform="translate(829.217,2151)"
             font-size="27px"
             font-weight="400"
             font-family="Calibri, Calibri_MSFontService, sans-serif"
             fill="#595959">T (=S+I)</text>
        </g>
        <rect
           id="rect3583"
           fill="none"
           stroke-miterlimit="10"
           stroke-linejoin="round"
           stroke="#000000"
           height="288"
           width="410"
           y="2116.5"
           x="654.5" />
      </g>
      <g
         id="g3641"
         transform="matrix(0.26458333,0,0,0.26458333,51.201667,-414.3891)"
         clip-path="url(#clip0-16)">
        <rect
           id="rect3617"
           fill="#ffffff"
           height="288"
           width="411"
           y="1991"
           x="1161" />
        <g
           id="g3621">
          <path
             id="path3619"
             fill="none"
             stroke-miterlimit="10"
             stroke-linejoin="round"
             stroke="#d9d9d9"
             d="m 1175.5,2264.5 h 381 m -381,-27 h 381 m -381,-26 h 381 m -381,-27 h 381 m -381,-54 h 381 m -381,-27 h 381 m -381,-26 h 381 m -381,-27 h 381" />
        </g>
        <g
           id="g3625">
          <path
             id="path3623"
             fill="none"
             stroke-miterlimit="10"
             stroke-linejoin="round"
             stroke="#d9d9d9"
             d="m 1175.5,2050.5 v 214 m 22,-214 v 214 m 21,-214 v 214 m 21,-214 v 214 m 21,-214 v 214 m 21,-214 v 214 m 21,-214 v 214 m 22,-214 v 214 m 21,-214 v 214 m 21,-214 v 214 m 21,-214 v 214 m 21,-214 v 214 m 21,-214 v 214 m 22,-214 v 214 m 21,-214 v 214 m 21,-214 v 214 m 21,-214 v 214 m 21,-214 v 214 m 21,-214 v 214" />
        </g>
        <g
           id="g3629">
          <path
             id="path3627"
             fill-rule="evenodd"
             fill="none"
             stroke-miterlimit="10"
             stroke-linejoin="round"
             stroke-width="1.33333"
             stroke="#000000"
             d="m 1175.5,2157.5 h 381" />
        </g>
        <g
           id="g3633">
          <path
             id="path3631"
             fill="none"
             stroke-miterlimit="10"
             stroke-linejoin="round"
             stroke-linecap="round"
             stroke-width="2"
             stroke="#5b9bd5"
             d="m 1176,2157.26 c 0.6,-1.17 1.22,-2.28 1.8,-3.53 0.58,-1.26 1.1,-2.29 1.68,-3.99 0.58,-1.7 1.2,-4.78 1.79,-6.21 0.56,-1.35 1.19,-2.53 1.74,-2.34 0.58,0.19 1.22,1.63 1.8,3.53 0.59,1.93 1.15,4.88 1.74,8.04 0.59,3.17 1.19,7.49 1.79,10.95 0.6,3.46 1.21,8.02 1.8,9.82 0.31,0.95 1.43,1.47 1.74,1 0.59,-0.9 1.2,-4.31 1.79,-6.37 0.59,-2.07 1.15,-4.21 1.74,-6.02 0.59,-1.82 1.2,-3.47 1.8,-4.88 0.6,-1.4 1.23,-2.28 1.79,-3.53 0.57,-1.26 1.06,-2.29 1.63,-3.99 0.57,-1.7 1.2,-4.78 1.79,-6.21 0.56,-1.35 1.19,-2.53 1.74,-2.34 0.58,0.19 1.22,1.63 1.8,3.53 0.59,1.93 1.15,4.88 1.74,8.04 0.59,3.17 1.19,7.49 1.79,10.95 0.6,3.46 1.21,8.02 1.8,9.82 0.31,0.95 1.43,1.47 1.74,1 0.59,-0.9 1.21,-4.31 1.79,-6.37 0.59,-2.07 1.15,-4.21 1.74,-6.02 0.59,-1.82 1.2,-3.47 1.8,-4.88 0.6,-1.4 1.23,-2.28 1.8,-3.53 0.57,-1.26 1.05,-2.29 1.62,-3.99 0.57,-1.7 1.21,-4.78 1.79,-6.21 0.56,-1.35 1.19,-2.53 1.74,-2.34 0.58,0.19 1.22,1.63 1.8,3.53 0.59,1.93 1.15,4.88 1.74,8.04 0.59,3.17 1.2,7.49 1.79,10.95 0.6,3.46 1.21,8.02 1.8,9.82 0.31,0.95 1.43,1.47 1.74,1 0.59,-0.9 1.21,-4.31 1.79,-6.37 0.59,-2.07 1.15,-4.21 1.74,-6.02 0.59,-1.82 1.2,-3.47 1.8,-4.88 0.6,-1.4 1.23,-2.28 1.8,-3.53 0.57,-1.26 1.05,-2.29 1.62,-3.99 0.57,-1.7 1.21,-4.78 1.79,-6.21 0.56,-1.35 1.19,-2.53 1.74,-2.34 0.58,0.19 1.22,1.63 1.8,3.53 0.59,1.93 1.15,4.88 1.74,8.04 0.59,3.17 1.2,7.49 1.79,10.95 0.6,3.46 1.21,8.02 1.8,9.82 0.31,0.95 1.43,1.47 1.74,1 0.59,-0.9 1.21,-4.31 1.8,-6.37 0.58,-2.07 1.14,-4.21 1.73,-6.02 0.59,-1.82 1.2,-3.47 1.8,-4.88 0.6,-1.4 1.22,-2.28 1.8,-3.53 0.58,-1.26 1.1,-2.29 1.68,-3.99 0.58,-1.7 1.2,-4.78 1.79,-6.21 0.56,-1.35 1.19,-2.53 1.74,-2.34 0.58,0.19 1.22,1.63 1.8,3.53 0.59,1.93 1.15,4.88 1.74,8.04 0.59,3.17 1.19,7.49 1.79,10.95 0.6,3.46 1.21,8.02 1.8,9.82 0.31,0.95 1.43,1.47 1.74,1 0.59,-0.9 1.2,-4.31 1.79,-6.37 0.59,-2.07 1.15,-4.21 1.74,-6.02 0.59,-1.82 1.2,-3.47 1.8,-4.88 0.6,-1.4 1.23,-2.28 1.8,-3.53 0.56,-1.26 1.05,-2.29 1.62,-3.99 0.57,-1.7 1.2,-4.78 1.79,-6.21 0.56,-1.35 1.19,-2.53 1.74,-2.34 0.58,0.19 1.22,1.63 1.8,3.53 0.59,1.93 1.15,4.88 1.74,8.04 0.59,3.17 1.19,7.49 1.79,10.95 0.6,3.46 1.21,8.02 1.8,9.82 0.31,0.95 1.43,1.47 1.74,1 0.59,-0.9 1.21,-4.31 1.79,-6.37 0.59,-2.07 1.15,-4.21 1.74,-6.02 0.59,-1.82 1.2,-3.47 1.8,-4.88 0.6,-1.4 1.23,-2.28 1.8,-3.53 0.57,-1.26 1.05,-2.29 1.62,-3.99 0.57,-1.7 1.21,-4.78 1.79,-6.21 0.56,-1.35 1.19,-2.53 1.74,-2.34 0.58,0.19 1.22,1.63 1.8,3.53 0.59,1.93 1.15,4.88 1.74,8.04 0.59,3.17 1.2,7.49 1.79,10.95 0.6,3.46 1.21,8.02 1.8,9.82 0.31,0.95 1.43,1.47 1.74,1 0.59,-0.9 1.21,-4.31 1.8,-6.37 0.58,-2.07 1.14,-4.21 1.73,-6.02 0.59,-1.82 1.2,-3.47 1.8,-4.88 0.6,-1.4 1.23,-2.28 1.8,-3.53 0.57,-1.26 1.05,-2.29 1.62,-3.99 0.57,-1.7 1.21,-4.78 1.8,-6.21 0.55,-1.35 1.18,-2.53 1.73,-2.34 0.58,0.19 1.22,1.63 1.8,3.53 0.59,1.93 1.15,4.88 1.74,8.04 0.59,3.17 1.2,7.49 1.79,10.95 0.6,3.46 1.21,8.02 1.8,9.82 0.31,0.95 1.43,1.47 1.74,1 0.59,-0.9 1.21,-4.31 1.8,-6.37 0.58,-2.07 1.14,-4.21 1.73,-6.02 0.59,-1.82 1.2,-3.47 1.8,-4.88 0.6,-1.4 1.22,-2.28 1.8,-3.53 0.58,-1.26 1.1,-2.29 1.68,-3.99 0.58,-1.7 1.2,-4.78 1.79,-6.21 0.56,-1.35 1.19,-2.53 1.74,-2.34 0.58,0.19 1.22,1.63 1.8,3.53 0.59,1.93 1.15,4.88 1.74,8.04 0.59,3.17 1.19,7.49 1.79,10.95 0.6,3.46 1.21,8.02 1.8,9.82 0.31,0.95 1.43,1.47 1.74,1 0.59,-0.9 1.21,-4.31 1.79,-6.37 0.59,-2.07 1.15,-4.21 1.74,-6.02 0.59,-1.82 1.2,-3.47 1.8,-4.88 0.6,-1.4 1.23,-2.28 1.8,-3.53 0.57,-1.26 1.05,-2.29 1.62,-3.99 0.57,-1.7 1.21,-4.78 1.79,-6.21 0.56,-1.35 1.19,-2.53 1.74,-2.34 0.58,0.19 1.22,1.63 1.8,3.53 0.59,1.93 1.15,4.88 1.74,8.04 0.59,3.17 1.19,7.49 1.79,10.95 0.6,3.46 1.21,8.02 1.8,9.82 0.31,0.95 1.43,1.47 1.74,1 0.59,-0.9 1.21,-4.31 1.79,-6.37 0.59,-2.07 1.15,-4.21 1.74,-6.02 0.59,-1.82 1.2,-3.47 1.8,-4.88 0.6,-1.4 1.23,-2.28 1.8,-3.53 0.57,-1.26 1.05,-2.29 1.62,-3.99 0.57,-1.7 1.21,-4.78 1.79,-6.21 0.56,-1.35 1.19,-2.53 1.74,-2.34 0.58,0.19 1.22,1.63 1.8,3.53 0.59,1.93 1.15,4.88 1.74,8.04 0.59,3.17 1.2,7.49 1.79,10.95 0.6,3.46 1.21,8.02 1.8,9.82 0.31,0.95 1.43,1.47 1.74,1 0.59,-0.9 1.21,-4.31 1.8,-6.37 0.58,-2.07 1.14,-4.21 1.73,-6.02 0.59,-1.82 1.2,-3.47 1.8,-4.88 0.6,-1.4 1.23,-2.28 1.8,-3.53 0.57,-1.26 1.05,-2.29 1.62,-3.99 0.57,-1.7 1.21,-4.78 1.8,-6.21 0.55,-1.35 1.18,-2.53 1.73,-2.34 0.58,0.19 1.22,1.63 1.8,3.53 0.59,1.93 1.15,4.88 1.74,8.04 0.59,3.17 1.2,7.49 1.79,10.95 0.6,3.46 1.21,8.02 1.8,9.82 0.31,0.95 1.43,1.47 1.74,1 0.59,-0.9 1.21,-4.31 1.8,-6.37 0.58,-2.07 1.15,-4.21 1.73,-6.02 0.59,-1.82 1.2,-3.47 1.8,-4.88 0.6,-1.4 1.22,-2.28 1.8,-3.53 0.58,-1.26 1.1,-2.29 1.68,-3.99 0.58,-1.7 1.2,-4.78 1.79,-6.21 0.56,-1.35 1.19,-2.53 1.74,-2.34 0.58,0.19 1.22,1.63 1.8,3.53 0.59,1.93 1.15,4.88 1.74,8.04 0.59,3.17 1.19,7.49 1.79,10.95 0.6,3.46 1.21,8.02 1.8,9.82 0.31,0.95 1.43,1.47 1.74,1 0.59,-0.9 1.21,-4.31 1.79,-6.37 0.59,-2.07 1.15,-4.21 1.74,-6.02 0.59,-1.82 1.2,-3.47 1.8,-4.88 0.6,-1.4 1.23,-2.28 1.8,-3.53 0.57,-1.26 1.05,-2.29 1.62,-3.99 0.57,-1.7 1.21,-4.78 1.79,-6.21 0.56,-1.35 1.19,-2.53 1.74,-2.34 0.58,0.19 1.22,1.63 1.8,3.53 0.59,1.93 1.15,4.88 1.74,8.04 0.59,3.17 1.2,7.49 1.79,10.95 0.6,3.46 1.21,8.02 1.8,9.82 0.31,0.95 1.43,1.47 1.74,1 0.59,-0.9 1.21,-4.31 1.79,-6.37 0.59,-2.07 1.15,-4.21 1.74,-6.02 0.59,-1.82 1.2,-3.47 1.8,-4.88 0.6,-1.4 1.23,-2.28 1.8,-3.53 0.57,-1.26 1.05,-2.29 1.62,-3.99 0.57,-1.7 1.21,-4.78 1.79,-6.21 0.56,-1.35 1.19,-2.53 1.74,-2.34 0.58,0.19 1.22,1.63 1.8,3.53 0.59,1.93 1.15,4.88 1.74,8.04 0.59,3.17 1.2,7.49 1.79,10.95 0.6,3.46 1.21,8.02 1.8,9.82 0.31,0.95 1.43,1.47 1.74,1 0.59,-0.9 1.21,-4.31 1.8,-6.37 0.58,-2.07 1.14,-4.21 1.73,-6.02 0.59,-1.82 1.2,-3.47 1.8,-4.88 0.6,-1.4 1.23,-2.28 1.8,-3.53 0.57,-1.26 1.05,-2.29 1.62,-3.99 0.57,-1.7 1.21,-4.78 1.8,-6.21 0.55,-1.35 1.18,-2.53 1.73,-2.34 0.58,0.19 1.22,1.63 1.8,3.53 0.59,1.93 1.15,4.88 1.74,8.04 0.59,3.17 1.2,7.49 1.8,10.95 0.59,3.46 1.2,8.02 1.79,9.82 0.31,0.95 1.43,1.47 1.74,1 0.59,-0.9 1.21,-4.31 1.8,-6.37 0.59,-2.07 1.15,-4.21 1.73,-6.02 0.59,-1.82 1.2,-3.47 1.8,-4.88 0.6,-1.4 1.22,-2.28 1.8,-3.53 0.58,-1.26 1.1,-2.29 1.68,-3.99 0.58,-1.7 1.2,-4.78 1.79,-6.21 0.56,-1.35 1.19,-2.53 1.74,-2.34 0.58,0.19 1.22,1.63 1.8,3.53 0.59,1.93 1.15,4.88 1.74,8.04 0.59,3.17 1.19,7.49 1.79,10.95 0.6,3.46 1.21,8.02 1.8,9.82 0.31,0.95 1.43,1.47 1.74,1 0.59,-0.9 1.21,-4.31 1.79,-6.37 0.59,-2.07 1.15,-4.21 1.74,-6.02 0.59,-1.82 1.2,-3.47 1.8,-4.88 0.6,-1.4 1.23,-2.28 1.8,-3.53 0.57,-1.26 1.05,-2.29 1.62,-3.99 0.57,-1.7 1.21,-4.78 1.79,-6.21 0.56,-1.35 1.19,-2.53 1.74,-2.34 0.58,0.19 1.22,1.63 1.8,3.53 0.59,1.93 1.15,4.88 1.74,8.04 0.59,3.17 1.2,7.49 1.79,10.95 0.6,3.46 1.21,8.02 1.8,9.82 0.31,0.95 1.43,1.47 1.74,1 0.59,-0.9 1.21,-4.31 1.8,-6.37 0.58,-2.07 1.14,-4.21 1.73,-6.02 0.59,-1.82 1.5,-4.06 1.8,-4.88" />
        </g>
        <g
           id="g3637">
          <text
             id="text3635"
             transform="translate(1360.26,2026)"
             font-size="27px"
             font-weight="400"
             font-family="Calibri, Calibri_MSFontService, sans-serif"
             fill="#595959">S</text>
        </g>
        <rect
           id="rect3639"
           fill="none"
           stroke-miterlimit="10"
           stroke-linejoin="round"
           stroke="#000000"
           height="288"
           width="411"
           y="1991.5"
           x="1161.5" />
      </g>
      <g
         id="g3709"
         transform="matrix(0.26458333,0,0,0.26458333,50.966982,-414.24331)"
         clip-path="url(#clip0-3)">
        <rect
           id="rect3669"
           fill="#ffffff"
           height="288"
           width="410"
           y="2341"
           x="1234" />
        <g
           id="g3673">
          <path
             id="path3671"
             fill="none"
             stroke-miterlimit="10"
             stroke-linejoin="round"
             stroke="#d9d9d9"
             d="m 1248.5,2614.5 h 381 m -381,-27 h 381 m -381,-27 h 381 m -381,-26 h 381 m -381,-54 h 381 m -381,-27 h 381 m -381,-27 h 381 m -381,-26 h 381" />
        </g>
        <g
           id="g3677">
          <path
             id="path3675"
             fill="none"
             stroke-miterlimit="10"
             stroke-linejoin="round"
             stroke="#d9d9d9"
             d="m 1248.5,2400.5 v 214 m 21,-214 v 214 m 21,-214 v 214 m 21,-214 v 214 m 22,-214 v 214 m 21,-214 v 214 m 21,-214 v 214 m 21,-214 v 214 m 21,-214 v 214 m 21,-214 v 214 m 22,-214 v 214 m 21,-214 v 214 m 21,-214 v 214 m 21,-214 v 214 m 21,-214 v 214 m 22,-214 v 214 m 21,-214 v 214 m 21,-214 v 214 m 21,-214 v 214" />
        </g>
        <g
           id="g3681">
          <path
             id="path3679"
             fill-rule="evenodd"
             fill="none"
             stroke-miterlimit="10"
             stroke-linejoin="round"
             stroke-width="1.33333"
             stroke="#000000"
             d="m 1248.5,2507.5 h 381" />
        </g>
        <g
           id="g3685">
          <path
             id="path3683"
             fill="none"
             stroke-miterlimit="10"
             stroke-linejoin="round"
             stroke-linecap="round"
             stroke-width="2"
             stroke="#5b9bd5"
             d="m 1248,2508.55 c 0.6,0.9 1.22,3.66 1.8,2.7 0.58,-0.97 1.1,-8.27 1.69,-8.49 0.58,-0.21 1.21,5.88 1.8,7.2 0.38,0.85 1.36,1.51 1.74,0.75 0.59,-1.19 1.21,-6.74 1.8,-7.84 0.51,-0.93 1.24,0.4 1.74,1.26 0.59,1.01 1.2,4.29 1.81,4.79 0.6,0.5 1.21,-1.44 1.8,-1.79 0.59,-0.36 1.15,-0.63 1.74,-0.34 0.59,0.29 1.21,1.7 1.8,2.09 0.59,0.39 1.15,0.81 1.74,0.26 0.59,-0.56 1.2,-2.18 1.8,-3.58 0.6,-1.39 1.23,-4.61 1.81,-4.79 0.57,-0.17 1.05,3.31 1.62,3.77 0.57,0.46 1.21,-1.61 1.8,-1 0.59,0.6 1.16,4.26 1.75,4.63 0.59,0.37 1.21,-1.39 1.8,-2.42 0.59,-1.03 1.15,-2.99 1.74,-3.77 0.34,-0.45 1.45,-1.79 1.8,-0.87 0.6,1.59 1.21,9.83 1.8,10.38 0.59,0.54 1.15,-7.06 1.75,-7.11 0.59,-0.05 1.21,6.08 1.8,6.82 0.59,0.75 1.15,-1.84 1.74,-2.35 0.4,-0.34 1.39,0.19 1.8,-0.66 0.6,-1.25 1.23,-6.53 1.8,-6.85 0.57,-0.32 1.06,4.63 1.63,4.92 0.57,0.28 1.21,-3.34 1.8,-3.22 0.59,0.13 1.15,3.71 1.74,3.96 0.59,0.26 1.21,-1.83 1.8,-2.43 0.38,-0.39 1.37,-2.13 1.75,-1.17 0.59,1.5 1.2,9.13 1.8,10.19 0.6,1.07 1.21,-3.25 1.8,-3.79 0.59,-0.53 1.15,0.59 1.74,0.57 0.59,-0.02 1.21,0.01 1.8,-0.7 0.59,-0.7 1.15,-2.79 1.75,-3.52 0.25,-0.31 1.54,-1.8 1.8,-0.85 0.6,2.17 1.23,13.11 1.8,13.91 0.57,0.79 1.05,-6.9 1.62,-9.15 0.58,-2.26 1.21,-4.71 1.81,-4.37 0.59,0.35 1.15,5.8 1.74,6.42 0.59,0.62 1.21,-2.34 1.8,-2.72 0.39,-0.25 1.35,1.25 1.74,0.45 0.59,-1.2 1.2,-7.24 1.8,-7.68 0.6,-0.45 1.21,3.66 1.8,5.01 0.6,1.36 1.16,3.02 1.75,3.11 0.59,0.1 1.21,-2.56 1.8,-2.52 0.59,0.05 1.15,2.94 1.74,2.78 0.59,-0.16 1.2,-2.99 1.8,-3.75 0.6,-0.76 1.22,-1.54 1.8,-0.8 0.58,0.73 1.11,4.4 1.69,5.21 0.37,0.51 1.43,0.44 1.8,-0.38 0.59,-1.3 1.15,-6.41 1.74,-7.43 0.56,-0.96 1.24,1.68 1.8,1.35 0.59,-0.34 1.16,-5.05 1.75,-3.4 0.59,1.65 1.2,12.21 1.8,13.28 0.6,1.08 1.21,-5.89 1.8,-6.83 0.56,-0.89 1.18,0.89 1.74,1.22 0.49,0.28 1.32,1.7 1.8,0.84 0.59,-1.03 1.15,-7.25 1.75,-7.07 0.59,0.19 1.2,6.83 1.8,8.18 0.36,0.8 1.46,0.26 1.8,-0.08 0.57,-0.58 1.05,-4.14 1.62,-3.36 0.58,0.78 1.21,8.13 1.81,8.04 0.59,-0.09 1.15,-7.32 1.74,-8.58 0.44,-0.93 1.36,1.15 1.8,1.04 0.59,-0.13 1.15,-2.04 1.74,-1.87 0.59,0.17 1.2,2.31 1.8,2.92 0.6,0.61 1.21,1.51 1.8,0.75 0.6,-0.76 1.16,-3.95 1.75,-5.33 0.59,-1.38 1.21,-3.42 1.8,-2.95 0.59,0.48 1.15,5.11 1.74,5.82 0.59,0.7 1.2,-1.81 1.8,-1.58 0.6,0.23 1.23,2.48 1.8,2.95 0.57,0.46 1.06,0.07 1.63,-0.15 0.57,-0.22 1.21,-0.91 1.8,-1.16 0.42,-0.18 1.33,-1.11 1.74,-0.34 0.6,1.08 1.21,6.58 1.81,6.81 0.59,0.23 1.15,-4.44 1.74,-5.43 0.33,-0.56 1.46,0.33 1.8,-0.53 0.6,-1.52 1.21,-9.5 1.8,-8.58 0.59,0.93 1.15,11.61 1.74,14.12 0.23,0.98 1.58,1.43 1.8,0.96 0.6,-1.22 1.16,-7.46 1.75,-8.28 0.59,-0.83 1.2,3.23 1.8,3.34 0.6,0.1 1.23,-2.45 1.8,-2.7 0.57,-0.25 1.06,1.97 1.63,1.18 0.57,-0.79 1.21,-5.44 1.8,-5.92 0.59,-0.48 1.15,2.17 1.74,3.03 0.59,0.87 1.21,1.39 1.8,2.16 0.59,0.77 1.15,2.76 1.74,2.46 0.6,-0.31 1.21,-4.42 1.81,-4.32 0.6,0.11 1.21,4.84 1.8,4.93 0.59,0.1 1.15,-4.58 1.74,-4.36 0.59,0.22 1.21,4.5 1.8,5.7 0.51,1.04 1.24,2.14 1.74,1.54 0.59,-0.7 1.2,-4.45 1.8,-5.73 0.56,-1.17 1.27,-2.39 1.81,-1.89 0.58,0.53 1.1,5.96 1.68,5.12 0.58,-0.85 1.21,-8.85 1.8,-10.19 0.49,-1.1 1.26,0.87 1.74,2.16 0.6,1.57 1.22,6.92 1.81,7.3 0.59,0.38 1.15,-5.81 1.74,-5.03 0.59,0.77 1.2,8.95 1.8,9.66 0.6,0.71 1.21,-4.12 1.8,-5.4 0.59,-1.27 1.15,-2.38 1.74,-2.24 0.59,0.14 1.21,1.5 1.8,3.09 0.6,1.59 1.16,5.94 1.75,6.45 0.59,0.51 1.2,-2.28 1.8,-3.38 0.6,-1.11 1.23,-2.81 1.8,-3.26 0.38,-0.31 1.24,1.27 1.63,0.52 0.57,-1.12 1.21,-7.05 1.8,-7.25 0.59,-0.2 1.15,4.21 1.74,6.05 0.59,1.84 1.21,5.18 1.8,4.98 0.59,-0.19 1.15,-5.08 1.74,-6.13 0.44,-0.78 1.36,-0.06 1.81,-0.18 0.6,-0.15 1.21,-0.24 1.8,-0.77 0.59,-0.53 1.15,-2.1 1.74,-2.4 0.59,-0.3 1.21,0.06 1.8,0.59 0.59,0.52 1.15,2.49 1.74,2.56 0.59,0.06 1.2,-1.83 1.81,-2.19 0.6,-0.36 1.22,-0.23 1.8,0.02 0.57,0.25 1.05,0.94 1.62,1.5 0.57,0.57 1.21,2.63 1.8,1.9 0.59,-0.72 1.16,-5.77 1.75,-6.26 0.59,-0.49 1.21,2.54 1.8,3.33 0.59,0.78 1.15,1.12 1.74,1.38 0.46,0.2 1.33,-0.58 1.8,0.18 0.6,0.96 1.21,5.68 1.8,5.6 0.59,-0.09 1.16,-4.54 1.75,-6.09 0.59,-1.54 1.21,-2.4 1.8,-3.19 0.59,-0.79 1.15,-2.18 1.74,-1.55 0.59,0.63 1.2,4.92 1.8,5.31 0.6,0.39 1.23,-2.73 1.8,-2.97 0.57,-0.25 1.06,1.39 1.63,1.51 0.49,0.1 1.3,-1.63 1.8,-0.8 0.59,0.97 1.15,6.22 1.74,6.65 0.59,0.42 1.21,-3.04 1.8,-4.09 0.59,-1.04 1.16,-2.63 1.75,-2.19 0.59,0.45 1.2,4.1 1.8,4.88 0.33,0.42 1.48,0.59 1.8,-0.24 0.59,-1.51 1.15,-7.78 1.74,-8.86 0.59,-1.08 1.21,1.55 1.8,2.39 0.59,0.84 1.16,1.87 1.75,2.64 0.59,0.77 1.2,1.05 1.8,1.98 0.6,0.93 1.22,3.76 1.8,3.59 0.58,-0.16 1.1,-4.01 1.68,-4.57 0.58,-0.57 1.21,0.9 1.8,1.16 0.59,0.26 1.16,0.29 1.75,0.38 0.4,0.05 1.4,0.91 1.8,0.12 0.59,-1.16 1.15,-6.5 1.74,-7.11 0.59,-0.6 1.2,2.34 1.8,3.49 0.6,1.16 1.21,3.01 1.8,3.45 0.58,0.43 1.17,-0.05 1.75,-0.81 0.59,-0.77 1.21,-3.59 1.8,-3.82 0.59,-0.23 1.15,2.1 1.74,2.43 0.59,0.32 1.2,-0.53 1.8,-0.51 0.6,0.03 1.23,1.35 1.8,0.67 0.57,-0.69 1.06,-4.26 1.63,-4.78 0.51,-0.46 1.28,0.57 1.8,1.67 0.59,1.23 1.15,6.23 1.74,5.74 0.59,-0.5 1.21,-9.93 1.8,-8.72 0.59,1.21 1.16,15.36 1.75,15.97 0.59,0.62 1.2,-11.27 1.8,-12.28 0.6,-1.01 1.21,6.29 1.8,6.21 0.59,-0.08 1.15,-6.32 1.74,-6.7 0.59,-0.39 1.21,4.02 1.8,4.38 0.59,0.37 1.16,-1.32 1.75,-2.18 0.59,-0.85 1.2,-3.99 1.8,-2.95 0.6,1.04 1.23,8.97 1.8,9.18 0.57,0.22 1.05,-6.95 1.63,-7.88 0.57,-0.94 1.21,2.68 1.8,2.27 0.59,-0.42 1.15,-4.83 1.74,-4.76 0.59,0.06 1.21,4.63 1.8,5.15 0.59,0.52 1.15,-1.45 1.74,-2.03 0.59,-0.58 1.2,-1.82 1.8,-1.44 0.6,0.37 1.21,2.36 1.81,3.67 0.59,1.31 1.15,3.82 1.74,4.18 0.59,0.36 1.21,-1.74 1.8,-2 0.56,-0.25 1.19,1.1 1.74,0.41 0.59,-0.73 1.2,-3.27 1.8,-4.79 0.6,-1.52 1.23,-5.06 1.8,-4.3 0.58,0.75 1.06,8.35 1.63,8.81 0.57,0.46 1.21,-6.1 1.8,-6.07 0.59,0.02 1.15,5.11 1.75,6.21 0.42,0.8 1.37,1.09 1.8,0.4 0.59,-0.95 1.15,-6.23 1.74,-6.1 0.59,0.12 1.2,8 1.8,6.85 0.6,-1.15 1.21,-13.27 1.8,-13.76 0.59,-0.49 1.15,9.36 1.74,10.83 0.5,1.24 1.31,-2.29 1.81,-1.99 0.59,0.36 1.15,3.2 1.74,4.15 0.59,0.95 1.2,1.65 1.8,1.55 0.6,-0.09 1.22,-1.76 1.8,-2.13 0.39,-0.25 1.3,0.64 1.69,-0.09 0.58,-1.1 1.21,-5.31 1.8,-6.54 0.41,-0.85 1.33,-0.76 1.74,-0.81 0.34,-0.05 1.46,-0.46 1.8,0.37 0.59,1.45 1.15,8.83 1.74,8.29 0.59,-0.54 1.2,-11.24 1.8,-11.52 0.61,-0.28 1.22,8.27 1.81,9.85 0.3,0.81 1.43,-0.21 1.74,-0.38 0.59,-0.32 1.21,-1.56 1.8,-1.58 0.59,-0.02 1.15,1.57 1.74,1.46 0.59,-0.11 1.2,-1.49 1.8,-2.14 0.6,-0.65 1.23,-2.1 1.8,-1.78 0.58,0.32 1.06,3.87 1.63,3.69 0.57,-0.17 1.21,-3.52 1.8,-4.73 0.59,-1.2 1.16,-3.17 1.75,-2.5 0.59,0.68 1.21,5.89 1.8,6.54 0.59,0.66 1.15,-2.87 1.74,-2.6 0.59,0.27 1.2,3.45 1.8,4.2 0.56,0.7 1.25,0.54 1.8,0.28 0.59,-0.27 1.15,-1.42 1.74,-1.94 0.6,-0.53 1.22,-0.87 1.81,-1.21 0.59,-0.34 1.15,-0.71 1.74,-0.85 0.59,-0.14 1.5,0 1.8,0" />
        </g>
        <g
           id="g3689">
          <text
             id="text3687"
             transform="translate(1387.6,2376)"
             font-size="27px"
             font-weight="400"
             font-family="Calibri, Calibri_MSFontService, sans-serif"
             fill="#595959">Y</text>
        </g>
        <g
           id="g3693">
          <text
             id="text3691"
             transform="translate(1400.59,2376)"
             font-size="27px"
             font-weight="400"
             font-family="Calibri, Calibri_MSFontService, sans-serif"
             fill="#595959">-</text>
        </g>
        <g
           id="g3697">
          <text
             id="text3695"
             transform="translate(1408.76,2376)"
             font-size="27px"
             font-weight="400"
             font-family="Calibri, Calibri_MSFontService, sans-serif"
             fill="#595959">T</text>
        </g>
        <g
           id="g3701">
          <text
             id="text3699"
             transform="translate(1421.75,2376)"
             font-size="27px"
             font-weight="400"
             font-family="Calibri, Calibri_MSFontService, sans-serif"
             fill="#595959">-</text>
        </g>
        <g
           id="g3705">
          <text
             id="text3703"
             transform="translate(1429.92,2376)"
             font-size="27px"
             font-weight="400"
             font-family="Calibri, Calibri_MSFontService, sans-serif"
             fill="#595959">S (= I)</text>
        </g>
        <rect
           id="rect3707"
           fill="none"
           stroke-miterlimit="10"
           stroke-linejoin="round"
           stroke="#000000"
           height="288"
           width="410"
           y="2341.5"
           x="1234.5" />
      </g>
      <path
         id="path2908-9"
         d="m 164.72288,116.34461 23.9053,-7.38821 0.30491,1.02125 -23.89082,7.39625 z m 18.83052,-8.5164 6.27503,1.3202 -4.43766,4.62235 c -0.19442,0.21414 -0.54354,0.22889 -0.74963,0.02 -0.21415,-0.19443 -0.21441,-0.53551 -0.0199,-0.74964 l 3.77867,-3.94613 0.28067,0.89419 -5.34181,-1.12474 c -0.2864,-0.0641 -0.47483,-0.33907 -0.41076,-0.62543 0.0642,-0.28639 0.33899,-0.47488 0.62543,-0.41075 z"
         style="fill:#000000;fill-opacity:1;fill-rule:nonzero;stroke:#000000;stroke-width:0.0165625px;stroke-linecap:butt;stroke-linejoin:round;stroke-miterlimit:4;stroke-dasharray:none;stroke-opacity:1" />
      <path
         style="fill:#000000;fill-opacity:1;fill-rule:nonzero;stroke:#000000;stroke-width:0.0165625px;stroke-linecap:butt;stroke-linejoin:round;stroke-miterlimit:4;stroke-dasharray:none;stroke-opacity:1"
         d="m 328.30526,174.55714 23.9053,-7.38821 0.30491,1.02125 -23.89082,7.39625 z m 18.83052,-8.5164 6.27503,1.3202 -4.43766,4.62235 c -0.19442,0.21414 -0.54354,0.22889 -0.74963,0.02 -0.21415,-0.19443 -0.21441,-0.53551 -0.0199,-0.74964 l 3.77867,-3.94613 0.28067,0.89419 -5.34181,-1.12474 c -0.2864,-0.0641 -0.47483,-0.33907 -0.41076,-0.62543 0.0642,-0.28639 0.33899,-0.47488 0.62543,-0.41075 z"
         id="path2908-9-2" />
      <g
         id="g3803"
         transform="translate(0.13702482,-1.0583333)">
        <text
           id="text2698-8"
           y="83.187721"
           x="177.08563"
           style="font-style:normal;font-variant:normal;font-weight:normal;font-stretch:normal;font-size:11.2889px;line-height:1;font-family:sans-serif;-inkscape-font-specification:'sans-serif, Normal';font-variant-ligatures:normal;font-variant-caps:normal;font-variant-numeric:normal;font-variant-east-asian:normal;text-align:center;letter-spacing:0px;word-spacing:0px;text-anchor:middle;fill:#000000;fill-opacity:1;stroke:none;stroke-width:0.264583"
           xml:space="preserve"><tspan
             sodipodi:role="line"
             style="font-style:normal;font-variant:normal;font-weight:normal;font-stretch:normal;font-size:11.2889px;font-family:sans-serif;-inkscape-font-specification:'sans-serif, Normal';font-variant-ligatures:normal;font-variant-caps:normal;font-variant-numeric:normal;font-variant-east-asian:normal;text-align:center;text-anchor:middle;fill:#000000;stroke-width:0.264583"
             id="tspan2694-7"
             x="177.08563"
             y="83.187721">近似</tspan><tspan
             y="94.476624"
             x="177.08563"
             sodipodi:role="line"
             style="font-style:normal;font-variant:normal;font-weight:normal;font-stretch:normal;font-size:9.87778px;font-family:sans-serif;-inkscape-font-specification:'sans-serif, Normal';font-variant-ligatures:normal;font-variant-caps:normal;font-variant-numeric:normal;font-variant-east-asian:normal;text-align:center;text-anchor:middle;stroke-width:0.264583"
             id="tspan3225-7">最小</tspan><tspan
             id="tspan3791"
             y="105.76552"
             x="177.08563"
             sodipodi:role="line"
             style="font-style:normal;font-variant:normal;font-weight:normal;font-stretch:normal;font-size:9.87778px;font-family:sans-serif;-inkscape-font-specification:'sans-serif, Normal';font-variant-ligatures:normal;font-variant-caps:normal;font-variant-numeric:normal;font-variant-east-asian:normal;text-align:center;text-anchor:middle;stroke-width:0.264583">二乗法</tspan></text>
        <text
           transform="scale(0.63557257,1.5733845)"
           id="text3795"
           y="66.460258"
           x="241.77538"
           style="font-size:14.7873px;line-height:1;font-family:'Cambria Math';-inkscape-font-specification:'Cambria Math, Normal';letter-spacing:0px;stroke-width:0.264583"
           xml:space="preserve"><tspan
             style="font-size:14.7873px;stroke-width:0.264583"
             y="66.460258"
             x="241.77538"
             id="tspan3793"
             sodipodi:role="line">（　　　）</tspan></text>
      </g>
      <g
         id="g3443"
         transform="translate(-142.05675,-57.902446)">
        <path
           id="path2808"
           d="m 337.21635,112.39628 v 76.32 h 108.11999 v -76.32 z"
           style="fill:#ffffff;fill-opacity:1;fill-rule:evenodd;stroke:none;stroke-width:0.264583" />
        <path
           id="path2810"
           d="m 341.05884,184.87378 h 100.43501 m -100.43501,-7.155 h 100.43501 m -100.43501,-6.89 h 100.43501 m -100.43501,-7.155 h 100.43501 m -100.43501,-7.155 h 100.43501 m -100.43501,-7.155 h 100.43501 m -100.43501,-7.155 h 100.43501 m -100.43501,-6.89 h 100.43501 m -100.43501,-7.155 h 100.43501"
           style="fill:none;stroke:#d9d9d9;stroke-width:0.265px;stroke-linecap:butt;stroke-linejoin:round;stroke-miterlimit:4;stroke-dasharray:none;stroke-opacity:1" />
        <path
           id="path2812"
           d="m 341.05884,128.16378 v 56.71 m 5.56501,-56.71 v 56.71 m 5.565,-56.71 v 56.71 m 5.82999,-56.71 v 56.71 m 5.56501,-56.71 v 56.71 m 5.56498,-56.71 v 56.71 m 5.56501,-56.71 v 56.71 m 5.56501,-56.71 v 56.71 m 5.565,-56.71 v 56.71 m 5.56498,-56.71 v 56.71 m 5.56501,-56.71 v 56.71 m 5.56501,-56.71 v 56.71 m 5.56498,-56.71 v 56.71 m 5.56501,-56.71 v 56.71 m 5.56501,-56.71 v 56.71 m 5.56498,-56.71 v 56.71 m 5.56501,-56.71 v 56.71 m 5.565,-56.71 v 56.71 m 5.56501,-56.71 v 56.71"
           style="fill:none;stroke:#d9d9d9;stroke-width:0.265px;stroke-linecap:butt;stroke-linejoin:round;stroke-miterlimit:4;stroke-dasharray:none;stroke-opacity:1" />
        <path
           id="path2814"
           d="m 1101.2315,506.29606 c 0.626,-0.68858 1.252,-1.37716 1.8154,-2.06575 0.5633,-0.62598 1.1267,-1.25196 1.6901,-1.87795 0.5634,-0.62598 1.1894,-1.31456 1.7528,-2.00315 0.6259,-0.62598 1.1893,-1.18937 1.7527,-1.81535 0.5634,-0.62599 1.1894,-1.25197 1.8154,-1.87795 0.5634,-0.62599 1.1267,-1.18937 1.6901,-1.75276 0.626,-0.62598 1.1894,-1.18937 1.8154,-1.81535 0.5634,-0.56339 1.1894,-1.12678 1.8153,-1.69016 0.5634,-0.56339 1.1268,-1.06418 1.6902,-1.62756 0.626,-0.50079 1.1894,-1.06417 1.8154,-1.62756 0.5633,-0.50079 1.1267,-1.00158 1.6901,-1.50236 0.626,-0.50079 1.1894,-1.06418 1.8154,-1.56496 0.6259,-0.50079 1.2519,-1.00158 1.8153,-1.43977 0.5634,-0.50078 1.0016,-0.87637 1.565,-1.31456 0.626,-0.43819 1.2519,-0.93898 1.8153,-1.43977 0.5634,-0.43819 1.1268,-0.87638 1.7528,-1.31456 0.5634,-0.43819 1.1894,-0.87638 1.7527,-1.31457 0.626,-0.43819 1.1894,-0.81378 1.7528,-1.25197 0.5634,-0.37559 1.1894,-0.81378 1.8154,-1.18937 0.5633,-0.43819 1.1893,-0.81378 1.7527,-1.18937 0.626,-0.43819 1.1268,-0.75118 1.7528,-1.12677 0.5634,-0.37559 1.1893,-0.81378 1.7527,-1.12677 0.626,-0.37559 1.1894,-0.75118 1.7528,-1.06418 0.5634,-0.37559 1.1893,-0.75118 1.8153,-1.06417 0.5634,-0.37559 1.1894,-0.68858 1.7528,-1.00157 0.5634,-0.313 1.0642,-0.62599 1.6275,-0.87638 0.5634,-0.31299 1.1894,-0.68859 1.8154,-1.00158 0.5634,-0.31299 1.1268,-0.56338 1.6902,-0.87638 0.6259,-0.31299 1.2519,-0.62598 1.8153,-0.87637 0.5634,-0.313 1.1268,-0.56339 1.7528,-0.81378 0.5634,-0.313 1.1893,-0.56339 1.7527,-0.87638 0.626,-0.25039 1.1894,-0.50079 1.8154,-0.75118 0.5634,-0.2504 1.1268,-0.50079 1.6901,-0.75118 0.626,-0.2504 1.252,-0.50079 1.8154,-0.75118 0.5634,-0.2504 1.1268,-0.43819 1.7527,-0.68859 0.5634,-0.25039 1.1894,-0.43819 1.7528,-0.68858 0.626,-0.18779 1.252,-0.43819 1.8154,-0.62598 0.5633,-0.2504 1.0641,-0.37559 1.6275,-0.62599 0.5634,-0.18779 1.1894,-0.37559 1.7528,-0.56338 0.626,-0.2504 1.1893,-0.37559 1.7527,-0.56339 0.5634,-0.18779 1.1894,-0.43819 1.8154,-0.56339 0.5634,-0.18779 1.1268,-0.37559 1.6901,-0.56338 0.626,-0.1878 1.1894,-0.31299 1.8154,-0.50079 0.5634,-0.18779 1.1894,-0.37559 1.7528,-0.50079 0.6259,-0.18779 1.1893,-0.31299 1.7527,-0.50078 0.5634,-0.1252 1.1894,-0.313 1.8154,-0.43819 0.5633,-0.1252 1.1267,-0.2504 1.6901,-0.43819 0.626,-0.1252 1.1894,-0.2504 1.8154,-0.37559 0.5634,-0.1878 1.1893,-0.31299 1.8153,-0.43819 0.5634,-0.1252 1.0642,-0.25039 1.6276,-0.37559 0.5634,-0.1252 1.1894,-0.2504 1.8153,-0.37559 0.5634,-0.0626 1.1268,-0.1878 1.7528,-0.31299 0.5634,-0.1252 1.1894,-0.2504 1.7528,-0.313 0.5633,-0.12519 1.1267,-0.25039 1.7527,-0.31299 0.5634,-0.1252 1.1894,-0.25039 1.7528,-0.31299 0.6259,-0.1252 1.2519,-0.25039 1.8153,-0.31299 0.5634,-0.1252 1.1268,-0.1878 1.7528,-0.31299 0.5634,-0.0626 1.1893,-0.1878 1.7527,-0.2504 0.626,-0.0626 1.1894,-0.18779 1.7528,-0.25039 0.5634,-0.0626 1.1894,-0.1878 1.7527,-0.2504 0.626,-0.0626 1.252,-0.18779 1.8154,-0.25039 0.5634,-0.0626 1.0642,-0.1252 1.6276,-0.18779 0.5633,-0.0626 1.1893,-0.1252 1.7527,-0.2504 0.626,-0.0626 1.1894,-0.1252 1.7528,-0.18779 0.626,-0.0626 1.1893,-0.1252 1.8153,-0.1878 0.5634,-0.0626 1.1268,-0.1252 1.6902,-0.18779 0.626,-0.0626 1.1893,-0.1252 1.8153,-0.1878 0.626,-0.0626 1.1894,-0.1252 1.8154,-0.1878 0.5634,-0.0626 1.1268,-0.12519 1.6901,-0.18779 0.626,-0.0626 1.1894,-0.1252 1.8154,-0.1878 0.5634,0 1.1268,-0.0626 1.7528,-0.12519 0.5633,-0.0626 1.1893,-0.1252 1.7527,-0.1878 0.626,0 1.252,-0.0626 1.8154,-0.12519 0.5634,-0.0626 1.0015,-0.1252 1.6275,-0.1252 0.5634,-0.0626 1.1894,-0.1252 1.7528,-0.1878 0.5634,-0.0626 1.1268,-0.0626 1.7527,-0.12519 0.5634,-0.0626 1.1894,-0.1252 1.7528,-0.1252 0.626,-0.0626 1.1894,-0.1252 1.7527,-0.1878 0.5634,0 1.1894,-0.0626 1.8154,-0.12519 0.5634,-0.0626 1.1894,-0.0626 1.7528,-0.1252 0.6259,-0.0626 1.1893,-0.1252 1.7527,-0.1252 0.5634,-0.0626 1.1894,-0.12519 1.7528,-0.18779 0.626,0 1.1893,-0.0626 1.7527,-0.1252 0.626,-0.0626 1.1894,-0.0626 1.8154,-0.1252 0.5634,-0.0626 1.1894,-0.12519 1.7527,-0.18779 0.5634,0 1.0642,-0.0626 1.6276,-0.1252 0.5634,0 1.1894,-0.0626 1.8154,-0.12519 0.5633,-0.0626 1.1267,-0.1252 1.6901,-0.1252 0.626,-0.0626 1.252,-0.1252 1.8154,-0.1878 0.5633,-0.0626 1.1267,-0.12519 1.7527,-0.12519 0.5634,-0.0626 1.1894,-0.1252 1.7528,-0.1878 0.626,-0.0626 1.1893,-0.1252 1.8153,-0.18779 0.5634,-0.0626 1.1268,-0.1252 1.7528,-0.1252 0.5634,-0.0626 1.1894,-0.1252 1.7527,-0.1878 0.5634,-0.0626 1.1268,-0.12519 1.7528,-0.18779 0.5634,-0.0626 1.1894,-0.1252 1.7528,-0.1878 0.6259,-0.0626 1.2519,-0.12519 1.8153,-0.18779 0.5634,-0.0626 1.0642,-0.1252 1.6902,-0.1878 0.5633,-0.12519 1.1893,-0.18779 1.7527,-0.25039 0.626,-0.0626 1.1894,-0.1252 1.7528,-0.1878 0.5634,-0.0626 1.1893,-0.18779 1.8153,-0.25039 0.5634,-0.0626 1.1268,-0.1252 1.6902,-0.18779 0.626,-0.1252 1.1894,-0.1878 1.8153,-0.2504 0.5634,-0.1252 1.1894,-0.18779 1.7528,-0.25039 0.626,-0.1252 1.1894,-0.1878 1.7528,-0.2504 0.5633,-0.12519 1.1893,-0.18779 1.8153,-0.31299 0.5634,-0.0626 1.1268,-0.12519 1.6902,-0.25039 0.6259,-0.0626 1.1893,-0.1878 1.8153,-0.31299 0.5634,-0.0626 1.1894,-0.1878 1.8154,-0.2504 0.5634,-0.12519 1.0015,-0.18779 1.5649,-0.31299 0.5634,-0.0626 1.252,-0.1878 1.8154,-0.31299 0.5634,-0.1252 1.1268,-0.1878 1.7527,-0.31299 0.5634,-0.1252 1.1894,-0.2504 1.7528,-0.37559 0.626,-0.0626 1.1268,-0.1878 1.7528,-0.313 0.5633,-0.12519 1.1893,-0.25039 1.7527,-0.37559 0.626,-0.12519 1.252,-0.25039 1.8154,-0.37559 0.5634,-0.12519 1.1267,-0.25039 1.7527,-0.37559 0.5634,-0.1252 1.1894,-0.25039 1.7528,-0.43819 0.626,-0.12519 1.1893,-0.25039 1.7527,-0.37559 0.5634,-0.12519 1.1894,-0.31299 1.8154,-0.43819 0.5634,-0.12519 1.1894,-0.31299 1.7527,-0.43819 0.5634,-0.12519 1.0642,-0.25039 1.6276,-0.43818 0.5634,-0.1252 1.1894,-0.313 1.8154,-0.43819 0.5633,-0.1878 1.1267,-0.313 1.6901,-0.50079 0.626,-0.1252 1.1894,-0.31299 1.8154,-0.43819 0.5634,-0.1878 1.1267,-0.37559 1.6901,-0.50079 0.626,-0.18779 1.252,-0.37559 1.8154,-0.56338 0.626,-0.1878 1.1894,-0.37559 1.8153,-0.56339 0.5634,-0.1252 1.1268,-0.31299 1.6902,-0.50079 0.626,-0.18779 1.252,-0.37559 1.8153,-0.56338 0.5634,-0.1878 1.1268,-0.37559 1.7528,-0.56339 0.5634,-0.18779 1.1894,-0.43819 1.7528,-0.62598 0.6259,-0.1878 1.2519,-0.43819 1.8153,-0.62599 0.5634,-0.18779 1.0642,-0.37559 1.6276,-0.56338 0.5634,-0.1878 1.1893,-0.43819 1.7527,-0.62599 0.626,-0.25039 1.1268,-0.43819 1.7528,-0.68858 0.5634,-0.18779 1.1894,-0.43819 1.7527,-0.68858 0.626,-0.1878 1.1894,-0.43819 1.7528,-0.62599 0.626,-0.25039 1.1894,-0.50078 1.8154,-0.75118 0.5633,-0.25039 1.1893,-0.50078 1.7527,-0.68858 0.626,-0.25039 1.1894,-0.50079 1.7528,-0.75118 0.5633,-0.2504 1.1893,-0.50079 1.8153,-0.75118 0.5634,-0.2504 1.1268,-0.50079 1.6902,-0.75118 0.626,-0.2504 1.1893,-0.56339 1.8153,-0.81378 0.5634,-0.2504 1.1894,-0.56339 1.7528,-0.81378 0.626,-0.2504 1.1268,-0.50079 1.6901,-0.81378 0.5634,-0.2504 1.1894,-0.56339 1.8154,-0.81378 0.5634,-0.31299 1.1268,-0.56339 1.6902,-0.81378 0.6259,-0.31299 1.2519,-0.62599 1.8153,-0.93898 0.5634,-0.25039 1.1268,-0.56338 1.7528,-0.81378 0.5634,-0.31299 1.1893,-0.62598 1.7527,-0.93897 0.626,-0.313 1.1894,-0.62599 1.8154,-0.93898 0.5634,-0.31299 1.1267,-0.62598 1.7527,-0.93898 0.5634,-0.31299 1.1894,-0.62598 1.7528,-0.93897 0.626,-0.31299 1.1268,-0.62599 1.7527,-1.00158 0.5634,-0.31299 1.1894,-0.62598 1.7528,-1.00157 0.626,-0.31299 1.252,-0.68858 1.8154,-1.00158 0.5633,-0.31299 1.0641,-0.62598 1.6275,-0.93897 0.5634,-0.313 1.1894,-0.68859 1.7528,-1.06418 0.626,-0.31299 1.1893,-0.68858 1.7527,-1.06417 0.5634,-0.31299 1.1894,-0.68858 1.8154,-1.06417 0.5634,-0.37559 1.1267,-0.68859 1.6901,-1.06418 0.626,-0.37559 1.1894,-0.75118 1.8154,-1.12677 0.5634,-0.37559 1.1894,-0.75118 1.7527,-1.12677 0.626,-0.37559 1.1894,-0.75118 1.7528,-1.12677 0.626,-0.43819 1.1894,-0.81378 1.8154,-1.18937 0.5633,-0.37559 1.1267,-0.75118 1.6901,-1.18937 0.626,-0.37559 1.1894,-0.81378 1.8154,-1.18937 0.626,-0.43819 1.2519,-0.87638 1.8153,-1.25197 0.5634,-0.37559 1.0016,-0.68858 1.565,-1.12677 0.5634,-0.37559 1.252,-0.81378 1.8153,-1.25197 0.5634,-0.43819 1.1268,-0.81378 1.7528,-1.25197 0.5634,-0.43819 1.1894,-0.87638 1.7527,-1.31457 0.626,-0.37559 1.1894,-0.81378 1.7528,-1.25196 0.5634,-0.43819 1.1894,-0.87638 1.8154,-1.31457 0.5633,-0.43819 1.1893,-0.93898 1.7527,-1.37717 0.626,-0.43819 1.1268,-0.87637 1.7528,-1.31456 0.5634,-0.43819 1.1893,-0.93898 1.7527,-1.37717 0.626,-0.43819 1.1894,-0.87638 1.7528,-1.37716 0.5634,-0.43819 1.1894,-0.93898 1.8153,-1.37717 0.5634,-0.50079 1.1894,-1.00157 1.7528,-1.43976 0.5634,-0.43819 1.0642,-0.87638 1.6276,-1.31457 0.5633,-0.43819 1.1893,-1.00157 1.8153,-1.43976 0.5634,-0.50079 1.1268,-0.93898 1.6902,-1.43977 0.6259,-0.50079 1.2519,-1.00157 1.8153,-1.50236 0.5634,-0.50079 1.1268,-0.93898 1.7528,-1.43976 0.5634,-0.50079 1.1893,-1.00158 1.7527,-1.56496 0.626,-0.50079 1.1894,-1.00158 1.8154,-1.50237 0.5634,-0.50078 1.1268,-1.00157 1.6901,-1.50236 0.626,-0.50079 1.252,-1.06417 1.8154,-1.56496 0.5634,-0.50079 1.1268,-1.00157 1.7528,-1.56496 0.5633,-0.50079 1.1893,-1.06417 1.7527,-1.56496 0.626,-0.56339 1.252,-1.12677 1.8154,-1.62756 0.5633,-0.50079 1.0641,-1.00157 1.6901,-1.50236 0.5634,-0.56339 1.1894,-1.12677 1.7528,-1.62756 0.626,-0.56339 1.1893,-1.06417 1.7527,-1.62756 0.5634,-0.56339 1.1894,-1.12677 1.7528,-1.69016 0.626,-0.50078 1.1894,-1.06417 1.7527,-1.56496 0.626,-0.56338 1.1894,-1.12677 1.8154,-1.69016 0.5634,-0.62598 1.1894,-1.18937 1.7528,-1.75275 0.6259,-0.56339 1.1893,-1.06417 1.7527,-1.62756 0.5634,-0.56339 1.1894,-1.18937 1.8154,-1.75276 0.5633,-0.56338 1.1267,-1.12677 1.6901,-1.69015 0.626,-0.56339 1.1894,-1.12678 1.8154,-1.75276 0.5634,-0.56339 1.1893,-1.18937 1.7527,-1.75276 0.5634,-0.56338 1.0642,-1.00157 1.6276,-1.56496 0.5634,-0.56338 1.1894,-1.25196 1.8153,-1.81535 0.5634,-0.56339 1.1268,-1.12677 1.7528,-1.75276 0.5634,-0.56338 1.1894,-1.18937 1.7528,-1.75275 0.5633,-0.62599 1.1267,-1.18937 1.7527,-1.81536 0.5634,-0.56338 1.1894,-1.18937 1.7528,-1.81535 0.626,-0.56339 1.2519,-1.18937 1.8153,-1.81536 0.5634,-0.62598 1.1268,-1.18937 1.7528,-1.75275 0.5634,-0.62599 1.1893,-1.25197 1.7527,-1.87795 0.626,-0.62599 1.1894,-1.18937 1.7528,-1.81536 0.5634,-0.56338 1.5024,-1.56496 1.7527,-1.87795"
           clip-path="url(#clipEmfPath10)"
           style="fill:none;stroke:#5b9bd5;stroke-width:2.00315px;stroke-linecap:round;stroke-linejoin:round;stroke-miterlimit:4;stroke-dasharray:none;stroke-opacity:1"
           transform="matrix(0.26458333,0,0,0.26458333,49.82384,45.483783)" />
        <g
           id="g2818"
           transform="matrix(0.26458333,0,0,0.26458333,49.82384,45.483783)">
          <rect
             id="rect2816"
             transform="translate(1285.3243,288.70375)"
             y="-17.09906"
             x="0"
             height="17.178345"
             width="13.187683"
             style="clip-rule:nonzero;display:inline;overflow:visible;visibility:visible;color-interpolation:sRGB;color-interpolation-filters:linearRGB;fill:#ffffff;stroke:none;stroke-dasharray:none;marker:none;enable-background:accumulate" />
        </g>
        <text
           id="text2824"
           y="121.86998"
           x="389.89923"
           style="font-style:normal;font-variant:normal;font-weight:400;font-size:7.16029px;line-height:125%;font-family:Calibri;text-align:start;letter-spacing:0px;word-spacing:0px;text-anchor:start;fill:#000000;fill-opacity:1;stroke:none;stroke-width:0.264583"
           xml:space="preserve"><tspan
             id="tspan2822"
             y="121.86998"
             x="389.89923"
             sodipodi:role="line"
             style="stroke-width:0.264583"><tspan
               id="tspan2820"
               style="font-style:normal;font-variant:normal;font-weight:400;font-size:7.16029px;font-family:Calibri;fill:#595959;stroke-width:0.264583"
               dy="0"
               dx="0">T</tspan></tspan></text>
        <path
           id="path2826"
           d="m 337.34885,112.52878 h 108.12 v 76.32 h -108.12 z"
           style="fill:none;stroke:#000000;stroke-width:0.265px;stroke-linecap:butt;stroke-linejoin:round;stroke-miterlimit:4;stroke-dasharray:none;stroke-opacity:1" />
      </g>
      <text
         xml:space="preserve"
         style="font-style:normal;font-variant:normal;font-weight:normal;font-stretch:normal;font-size:11.2889px;line-height:1;font-family:sans-serif;-inkscape-font-specification:'sans-serif, Normal';font-variant-ligatures:normal;font-variant-caps:normal;font-variant-numeric:normal;font-variant-east-asian:normal;text-align:center;letter-spacing:0px;word-spacing:0px;text-anchor:middle;fill:#000000;fill-opacity:1;stroke:none;stroke-width:0.264583"
         x="412.6666"
         y="137.48764"
         id="text2698-3"><tspan
           id="tspan3225-8"
           style="font-style:normal;font-variant:normal;font-weight:normal;font-stretch:normal;font-size:11.2889px;font-family:sans-serif;-inkscape-font-specification:'sans-serif, Normal';font-variant-ligatures:normal;font-variant-caps:normal;font-variant-numeric:normal;font-variant-east-asian:normal;text-align:center;text-anchor:middle;stroke-width:0.264583"
           sodipodi:role="line"
           x="412.6666"
           y="137.48764">※ 季節調整値</tspan></text>
    </g>
  </g>
</svg>
